<svg width="55" height="55" viewBox="0 0 55 55" fill="none" xmlns="http://www.w3.org/2000/svg">
<g clip-path="url(#clip0_3039_8068)">
<path d="M55 36.3603V18.627C55 18.2385 54.7444 17.8961 54.3721 17.7856L46.1674 15.3513C46.8024 13.7979 47.1983 12.256 47.1983 10.8245C47.1983 4.85591 42.3425 0 36.3738 0C30.4052 0 25.5494 4.8558 25.5494 10.8245C25.5494 12.256 25.9453 13.7979 26.5803 15.3513L18.6253 17.7115L1.12727 12.5195C0.861862 12.441 0.574691 12.492 0.352702 12.6576C0.130713 12.8232 0 13.084 0 13.361V31.1164C0 31.1185 0 31.1208 0 31.1229V48.8564C0 49.2449 0.255457 49.5873 0.628053 49.6978L18.3625 54.9599C18.3677 54.9614 18.3757 54.9637 18.3757 54.9637C18.3785 54.9645 18.3815 54.9648 18.3843 54.9656C18.4169 54.975 18.4504 54.9821 18.4846 54.9876C18.4937 54.9891 18.5028 54.9906 18.5121 54.9918C18.5488 54.9966 18.586 54.9998 18.6239 54.9999C18.6647 54.9999 18.702 54.9966 18.7389 54.9918C18.748 54.9906 18.757 54.9891 18.7661 54.9876C18.8003 54.9821 18.8339 54.9748 18.8666 54.9656C18.8694 54.9648 18.8724 54.9645 18.8752 54.9637L18.8833 54.9613C18.8884 54.9597 36.0183 49.8773 36.0183 49.8773C36.1272 49.9256 36.2472 49.953 36.374 49.953C36.5007 49.953 36.6209 49.9256 36.7296 49.8773L53.8727 54.9636C53.9548 54.9879 54.0388 54.9999 54.1225 54.9999C54.3095 54.9999 54.494 54.9401 54.6474 54.8255C54.8693 54.6598 55.0001 54.3991 55.0001 54.1222V36.3673C55 36.3649 55 36.3626 55 36.3603ZM53.2447 19.2821V35.1988L37.2515 30.4536V27.9573C38.396 26.7788 42.8905 21.9898 45.4285 16.9631L53.2447 19.2821ZM36.3738 1.75532C41.3745 1.75532 45.443 5.82368 45.443 10.8245C45.443 12.2499 44.9661 13.8375 44.2246 15.4451C44.1878 15.5038 44.1576 15.5676 44.135 15.6361C42.0202 20.1004 37.9295 24.676 36.3736 26.3314C34.8186 24.6778 30.7317 20.1085 28.616 15.6457C28.5923 15.5706 28.5592 15.501 28.5186 15.4374C27.7797 13.8329 27.3047 12.2481 27.3047 10.8244C27.3047 5.82368 31.3732 1.75532 36.3738 1.75532ZM35.4962 27.9572V30.4535L19.503 35.1987V19.2821L27.3192 16.9631C29.8573 21.9898 34.3517 26.7788 35.4962 27.9572ZM1.75532 32.2845L7.81913 34.0837C7.90245 34.1084 7.98647 34.1202 8.06909 34.1202C8.44765 34.1202 8.79696 33.8734 8.91012 33.492C9.04809 33.0273 8.78315 32.5388 8.31834 32.401L1.75532 30.4536V14.5369L17.7477 19.2821V35.1988L11.684 33.3996C11.2194 33.2615 10.7309 33.5266 10.593 33.9914C10.455 34.4561 10.72 34.9445 11.1848 35.0824L17.7478 37.0297V52.9465L1.75532 48.2013V32.2845ZM37.2515 48.2013V41.8474C37.2515 41.3627 36.8587 40.9697 36.3738 40.9697C35.889 40.9697 35.4962 41.3627 35.4962 41.8474V48.2013L19.503 52.9464V37.0297L35.4962 32.2845V38.3368C35.4962 38.8215 35.889 39.2144 36.3738 39.2144C36.8587 39.2144 37.2515 38.8215 37.2515 38.3368V32.2845L53.2447 37.0297V52.9465L37.2515 48.2013Z" fill="black"/>
<path d="M36.3738 16.9681C39.7614 16.9681 42.5175 14.2122 42.5175 10.8245C42.5175 7.43699 39.7614 4.68091 36.3738 4.68091C32.9863 4.68091 30.2302 7.43688 30.2302 10.8245C30.2302 14.2121 32.9863 16.9681 36.3738 16.9681ZM36.3738 6.43623C38.7936 6.43623 40.7621 8.40476 40.7621 10.8245C40.7621 13.2443 38.7936 15.2128 36.3738 15.2128C33.9541 15.2128 31.9855 13.2443 31.9855 10.8245C31.9855 8.40476 33.9541 6.43623 36.3738 6.43623Z" fill="black"/>
</g>
<defs>
<clipPath id="clip0_3039_8068">
<rect width="55" height="55" fill="white"/>
</clipPath>
</defs>
</svg>
