<svg width="64" height="64" viewBox="0 0 64 64" fill="none" xmlns="http://www.w3.org/2000/svg">
<g clip-path="url(#clip0_3039_8016)">
<path d="M63.0607 5.4795H54.9824V5.41688C54.9824 3.79396 53.6621 2.47363 52.0391 2.47363C50.4162 2.47363 49.0959 3.79396 49.0959 5.41688V5.4795H41.0176C40.4988 5.4795 40.0783 5.90007 40.0783 6.41884C40.0783 6.9376 40.4988 7.35817 41.0176 7.35817H48.0939V8.42275C48.0939 8.44379 48.0952 8.46446 48.0956 8.48537H42.0392C42.0382 8.48537 42.0372 8.48537 42.0362 8.48537H21.9646C21.9633 8.48537 21.9619 8.48537 21.9605 8.48537H15.9044C15.9048 8.46446 15.9061 8.44379 15.9061 8.42275V7.35817H22.9824C23.5012 7.35817 23.9217 6.9376 23.9217 6.41884C23.9217 5.90007 23.5012 5.4795 22.9824 5.4795H14.9041V5.41688C14.9041 3.79396 13.5838 2.47363 11.9609 2.47363C10.3379 2.47363 9.01761 3.79396 9.01761 5.41688V5.4795H0.939335C0.420571 5.4795 0 5.90007 0 6.41884C0 6.9376 0.420571 7.35817 0.939335 7.35817H8.01566V8.42275C8.01566 10.5981 9.78549 12.368 11.9609 12.368C13.4309 12.368 14.7146 11.5593 15.3933 10.364H21.3034L22.1797 12.9931C22.8541 15.0164 24.7402 16.3758 26.873 16.3758H27.0528V19.5069H26.9902C24.9125 19.5069 22.9578 20.6137 21.8889 22.3953L20.3424 24.9728C20.1683 25.263 20.1636 25.6245 20.3305 25.9189C20.4972 26.2134 20.8094 26.3955 21.1478 26.3955H42.8521C43.1905 26.3955 43.5027 26.2134 43.6694 25.9189C43.8362 25.6243 43.8316 25.263 43.6575 24.9728L42.111 22.3953C41.042 20.6137 39.0873 19.5069 37.0097 19.5069H36.9472V16.3758H37.127C39.2598 16.3758 41.1459 15.0164 41.8203 12.9931L42.6966 10.364H48.6067C49.2854 11.5593 50.5691 12.368 52.0391 12.368C54.2145 12.368 55.9843 10.5981 55.9843 8.42275V7.35817H63.0607C63.5794 7.35817 64 6.9376 64 6.41884C64 5.90007 63.5794 5.4795 63.0607 5.4795ZM10.8963 5.41688C10.8963 4.82986 11.3738 4.3523 11.9609 4.3523C12.5479 4.3523 13.0254 4.82986 13.0254 5.41688V5.4795H10.8963V5.41688ZM11.9609 10.4893C10.8214 10.4893 9.89433 9.56223 9.89433 8.42275V7.35817H14.0274V8.42275C14.0274 9.56223 13.1003 10.4893 11.9609 10.4893ZM40.5002 23.3618L41.1931 24.5167H22.8069L23.4998 23.3618C24.2312 22.1428 25.5687 21.3856 26.9902 21.3856H37.0098C38.4313 21.3856 39.7688 22.1428 40.5002 23.3618ZM35.0685 19.5069H28.9315V16.3758H35.0685V19.5069ZM40.0379 12.399C39.6196 13.654 38.4498 14.4971 37.1269 14.4971H26.873C25.55 14.4971 24.3802 13.654 23.9619 12.399L23.2836 10.364H40.7161L40.0379 12.399ZM50.9746 5.41688C50.9746 4.82986 51.4521 4.3523 52.0391 4.3523C52.6262 4.3523 53.1037 4.82986 53.1037 5.41688V5.4795H50.9746V5.41688ZM54.1057 8.42275C54.1057 9.56223 53.1786 10.4893 52.0391 10.4893C50.8997 10.4893 49.9726 9.56223 49.9726 8.42275V7.35817H54.1057V8.42275Z" fill="black"/>
<path d="M32 39.4834C31.4487 39.4834 30.998 39.934 30.998 40.4854C30.998 41.0362 31.4487 41.4873 32 41.4873C32.5508 41.4873 33.002 41.0362 33.002 40.4854C33.002 39.934 32.5508 39.4834 32 39.4834Z" fill="black"/>
<path d="M32 31.4678C31.4487 31.4678 30.998 31.9184 30.998 32.4697C30.998 33.0206 31.4487 33.4717 32 33.4717C32.5508 33.4717 33.002 33.0206 33.002 32.4697C33.002 31.9184 32.5508 31.4678 32 31.4678Z" fill="black"/>
<path d="M32 27.46C31.4487 27.46 30.998 27.9106 30.998 28.4619C30.998 29.0127 31.4487 29.4639 32 29.4639C32.5508 29.4639 33.002 29.0127 33.002 28.4619C33.002 27.9106 32.5508 27.46 32 27.46Z" fill="black"/>
<path d="M32 43.4912C31.4487 43.4912 30.998 43.9418 30.998 44.4932C30.998 45.044 31.4487 45.4951 32 45.4951C32.5508 45.4951 33.002 45.044 33.002 44.4932C33.002 43.9418 32.5508 43.4912 32 43.4912Z" fill="black"/>
<path d="M32 35.4756C31.4487 35.4756 30.998 35.9262 30.998 36.4775C30.998 37.0284 31.4487 37.4795 32 37.4795C32.5508 37.4795 33.002 37.0284 33.002 36.4775C33.002 35.9262 32.5508 35.4756 32 35.4756Z" fill="black"/>
<path d="M32 59.5225C31.4487 59.5225 30.998 59.9731 30.998 60.5244C30.998 61.0752 31.4487 61.5264 32 61.5264C32.5508 61.5264 33.002 61.0752 33.002 60.5244C33.002 59.9731 32.5508 59.5225 32 59.5225Z" fill="black"/>
<path d="M32 47.499C31.4487 47.499 30.998 47.9497 30.998 48.501C30.998 49.0518 31.4487 49.5029 32 49.5029C32.5508 49.5029 33.002 49.0518 33.002 48.501C33.002 47.9497 32.5508 47.499 32 47.499Z" fill="black"/>
<path d="M32 51.5068C31.4487 51.5068 30.998 51.9575 30.998 52.5088C30.998 53.0596 31.4487 53.5107 32 53.5107C32.5508 53.5107 33.002 53.0596 33.002 52.5088C33.002 51.9575 32.5508 51.5068 32 51.5068Z" fill="black"/>
<path d="M32 55.5146C31.4487 55.5146 30.998 55.9653 30.998 56.5166C30.998 57.0674 31.4487 57.5186 32 57.5186C32.5508 57.5186 33.002 57.0674 33.002 56.5166C33.002 55.9653 32.5508 55.5146 32 55.5146Z" fill="black"/>
<path d="M40.5464 27.59C40.0758 27.8703 39.9051 28.4819 40.1859 28.9628C40.366 29.2833 40.7069 29.4638 41.0474 29.4638C41.2176 29.4638 41.3982 29.4237 41.5484 29.3331C42.0293 29.0528 42.1995 28.4418 41.9192 27.9608C41.6384 27.4799 41.0274 27.3195 40.5464 27.59Z" fill="black"/>
<path d="M43.0514 32.9306C43.2216 32.9306 43.4022 32.8905 43.5524 32.8C44.0333 32.5197 44.1937 31.9086 43.9232 31.4277C43.6424 30.9565 43.0313 30.7863 42.5504 31.0666C42.0695 31.3371 41.909 31.9585 42.1898 32.4296C42.3699 32.7603 42.711 32.9306 43.0514 32.9306Z" fill="black"/>
<path d="M53.9427 48.7814C53.6619 48.3108 53.0509 48.14 52.5699 48.4208C52.089 48.6914 51.9286 49.3127 52.2094 49.7834C52.3895 50.1039 52.7304 50.2844 53.0709 50.2844C53.2411 50.2844 53.4217 50.2443 53.5719 50.1542C54.0528 49.8837 54.2232 49.2624 53.9427 48.7814Z" fill="black"/>
<path d="M47.0694 39.8738C47.2396 39.8738 47.4099 39.8337 47.5601 39.7437C48.0411 39.4634 48.2113 38.8518 47.931 38.3709C47.6502 37.8899 47.0391 37.73 46.5582 38.0103C46.0875 38.2808 45.9168 38.8919 46.1976 39.3728C46.3777 39.6938 46.7187 39.8738 47.0694 39.8738Z" fill="black"/>
<path d="M51.9388 45.3147C51.658 44.8337 51.0469 44.6733 50.566 44.9541C50.0953 45.2246 49.9246 45.8357 50.2054 46.3166C50.3855 46.6371 50.7264 46.8176 51.0669 46.8176C51.2372 46.8176 51.4178 46.7775 51.5679 46.6875C52.0489 46.4066 52.2192 45.7955 51.9388 45.3147Z" fill="black"/>
<path d="M49.9349 41.848C49.6541 41.3671 49.0431 41.1968 48.5621 41.4771C48.0812 41.7579 47.9207 42.369 48.2015 42.8499C48.3816 43.1704 48.7226 43.3509 49.0734 43.3509C49.2333 43.3509 49.4139 43.3011 49.5641 43.2105C50.045 42.94 50.2154 42.3187 49.9349 41.848Z" fill="black"/>
<path d="M55.9466 52.2584C55.6658 51.7775 55.0547 51.6171 54.5738 51.8876C54.1031 52.1679 53.9324 52.7795 54.2132 53.2604C54.3933 53.5809 54.7342 53.7614 55.085 53.7614C55.245 53.7614 55.4256 53.7213 55.5757 53.6307C56.0567 53.3505 56.227 52.7394 55.9466 52.2584Z" fill="black"/>
<path d="M56.5777 55.3642C56.0968 55.6347 55.9364 56.2463 56.2172 56.7272C56.3973 57.0477 56.7382 57.2282 57.089 57.2282C57.2489 57.2282 57.4295 57.1881 57.5797 57.0975C58.0606 56.8172 58.2211 56.2062 57.9506 55.7252C57.6698 55.2443 57.0587 55.0839 56.5777 55.3642Z" fill="black"/>
<path d="M44.5542 34.5337C44.0836 34.814 43.9129 35.4251 44.1937 35.906C44.3738 36.227 44.7147 36.407 45.0552 36.407C45.2254 36.407 45.3958 36.3571 45.5562 36.2671C46.0371 35.9965 46.2074 35.385 45.9271 34.904C45.6463 34.4232 45.0352 34.2632 44.5542 34.5337Z" fill="black"/>
<path d="M39.1938 31.9687C39.0236 31.4476 38.4624 31.1571 37.9316 31.3273C37.4106 31.4975 37.12 32.0587 37.2805 32.5797C37.4204 33.0107 37.8112 33.2813 38.2423 33.2813C38.3422 33.2813 38.4425 33.2613 38.5427 33.231C39.0738 33.0607 39.364 32.4994 39.1938 31.9687Z" fill="black"/>
<path d="M44.1136 47.2287C43.9434 46.6974 43.3719 46.4067 42.8508 46.577C42.3201 46.7477 42.0294 47.3187 42.1997 47.8397C42.3401 48.2707 42.731 48.5413 43.1518 48.5413C43.2619 48.5413 43.3622 48.5213 43.4624 48.491C43.9932 48.3207 44.2838 47.7594 44.1136 47.2287Z" fill="black"/>
<path d="M40.426 35.7863C40.2558 35.255 39.6848 34.9643 39.1638 35.1346C38.6325 35.3048 38.3418 35.8661 38.5127 36.3973C38.6526 36.818 39.0435 37.0985 39.4643 37.0985C39.5749 37.0985 39.6747 37.0784 39.7749 37.0486C40.3062 36.8783 40.5964 36.3069 40.426 35.7863Z" fill="black"/>
<path d="M42.8811 43.411C42.7109 42.89 42.1497 42.5995 41.6184 42.7697C41.0974 42.9399 40.8072 43.5011 40.9775 44.0221C41.1077 44.4531 41.5083 44.7237 41.9291 44.7237C42.0295 44.7237 42.1298 44.7037 42.2397 44.6734C42.7608 44.503 43.0513 43.942 42.8811 43.411Z" fill="black"/>
<path d="M41.6487 39.6032C41.4785 39.0724 40.9173 38.7817 40.386 38.952C39.865 39.1222 39.5748 39.6834 39.7451 40.2147C39.885 40.6354 40.2759 40.9061 40.6967 40.9061C40.797 40.9061 40.8974 40.8958 41.0073 40.8557C41.5283 40.6854 41.8189 40.1242 41.6487 39.6032Z" fill="black"/>
<path d="M46.5381 58.0196C46.0073 58.1898 45.7166 58.7608 45.887 59.2819C46.0273 59.7128 46.4177 59.9835 46.8488 59.9835C46.9491 59.9835 47.0495 59.9634 47.1492 59.9331C47.6805 59.7629 47.9711 59.2017 47.8008 58.6709C47.6301 58.1498 47.0591 57.8489 46.5381 58.0196Z" fill="black"/>
<path d="M45.336 51.046C45.1653 50.5148 44.6041 50.2241 44.0733 50.3944C43.5523 50.5651 43.2617 51.1258 43.4319 51.6571C43.5723 52.0778 43.9632 52.3485 44.384 52.3485C44.4843 52.3485 44.5944 52.3382 44.6946 52.2986C45.2158 52.1278 45.5063 51.5671 45.336 51.046Z" fill="black"/>
<path d="M37.9613 28.1513C37.7911 27.6303 37.2299 27.3397 36.6991 27.5099C36.1781 27.6801 35.8875 28.2413 36.0578 28.7726C36.1981 29.1933 36.5885 29.464 37.0099 29.464C37.1097 29.464 37.21 29.4439 37.3205 29.4136C37.841 29.2432 38.1316 28.6821 37.9613 28.1513Z" fill="black"/>
<path d="M46.5684 54.8534C46.3977 54.3324 45.837 54.0418 45.3057 54.212C44.7847 54.3823 44.4941 54.9435 44.6643 55.4748C44.7949 55.8955 45.1956 56.1661 45.6164 56.1661C45.7167 56.1661 45.8171 56.1461 45.9168 56.1158C46.4481 55.9454 46.7387 55.3842 46.5684 54.8534Z" fill="black"/>
<path d="M19.9262 50.3943C19.3954 50.2241 18.8342 50.5147 18.664 51.046C18.4937 51.567 18.7843 52.1277 19.3048 52.2984C19.4052 52.338 19.5157 52.3483 19.6154 52.3483C20.0366 52.3483 20.427 52.0778 20.5675 51.6569C20.7378 51.1258 20.4472 50.5651 19.9262 50.3943Z" fill="black"/>
<path d="M18.6938 54.212C18.163 54.0418 17.6018 54.3324 17.4316 54.8534C17.2614 55.3842 17.5514 55.9454 18.0725 56.1156C18.183 56.146 18.2834 56.166 18.3831 56.166C18.8038 56.166 19.205 55.8955 19.3352 55.4746C19.5054 54.9435 19.2148 54.3823 18.6938 54.212Z" fill="black"/>
<path d="M17.4613 58.0196C16.9403 57.8489 16.3693 58.1498 16.1991 58.6708C16.0289 59.2016 16.3189 59.7628 16.8502 59.933C16.9506 59.9633 17.0504 59.9833 17.1506 59.9833C17.5815 59.9833 17.9725 59.7128 18.1124 59.2817C18.2832 58.7608 17.9926 58.1898 17.4613 58.0196Z" fill="black"/>
<path d="M22.3811 42.7697C21.8498 42.5995 21.2891 42.89 21.1184 43.411C20.9482 43.9418 21.2388 44.5031 21.7598 44.6733C21.8699 44.7036 21.9702 44.7236 22.0704 44.7236C22.4911 44.7236 22.8919 44.4531 23.0225 44.022C23.1928 43.5011 22.9022 42.94 22.3811 42.7697Z" fill="black"/>
<path d="M21.1486 46.577C20.6276 46.4068 20.0561 46.6973 19.8859 47.2286C19.7157 47.7594 20.0063 48.3206 20.5376 48.4908C20.6374 48.5211 20.7377 48.5412 20.8379 48.5412C21.2689 48.5412 21.6594 48.2706 21.7998 47.8396C21.9701 47.3187 21.6796 46.7477 21.1486 46.577Z" fill="black"/>
<path d="M24.8356 35.1346C24.3146 34.9644 23.7436 35.2549 23.5734 35.7862C23.4032 36.3067 23.6938 36.8782 24.2246 37.0484C24.3249 37.0783 24.4252 37.0983 24.5352 37.0983C24.9559 37.0983 25.3468 36.818 25.4873 36.3972C25.6575 35.866 25.3669 35.3049 24.8356 35.1346Z" fill="black"/>
<path d="M26.0681 31.3273C25.5373 31.1571 24.9761 31.4476 24.8058 31.9687C24.6356 32.4994 24.9262 33.0607 25.457 33.2309C25.5573 33.2612 25.6576 33.2812 25.7578 33.2812C26.1884 33.2812 26.5793 33.0107 26.7094 32.5796C26.8796 32.0587 26.5891 31.4975 26.0681 31.3273Z" fill="black"/>
<path d="M27.3008 27.5099C26.7695 27.3397 26.2083 27.6303 26.0381 28.1513C25.8679 28.6821 26.1585 29.2433 26.6795 29.4135C26.7896 29.4438 26.8899 29.4638 26.9901 29.4638C27.4108 29.4638 27.8116 29.1933 27.9417 28.7725C28.112 28.2413 27.8215 27.6802 27.3008 27.5099Z" fill="black"/>
<path d="M23.6134 38.9522C23.0821 38.782 22.5214 39.0726 22.3507 39.6034C22.1805 40.1244 22.4711 40.6856 22.9921 40.8558C23.0924 40.8959 23.2025 40.9062 23.3027 40.9062C23.7234 40.9062 24.1143 40.6356 24.2548 40.2148C24.4251 39.6836 24.1345 39.1224 23.6134 38.9522Z" fill="black"/>
<path d="M11.3796 48.4208C10.8987 48.14 10.2871 48.3108 10.0068 48.7814C9.7265 49.2624 9.89671 49.8837 10.3674 50.1542C10.5278 50.2443 10.6982 50.2844 10.8684 50.2844C11.2192 50.2844 11.5597 50.1039 11.7402 49.7834C12.021 49.3127 11.8503 48.6915 11.3796 48.4208Z" fill="black"/>
<path d="M22.4012 29.3331C22.5514 29.4237 22.7217 29.4638 22.8919 29.4638C23.2427 29.4638 23.5832 29.2833 23.7637 28.9628C24.0445 28.4819 23.8738 27.8703 23.4031 27.59C22.9222 27.3195 22.3009 27.4799 22.0303 27.9608C21.75 28.4418 21.9204 29.0528 22.4012 29.3331Z" fill="black"/>
<path d="M9.36543 51.8876C8.89476 51.6171 8.27343 51.7775 8.0029 52.2584C7.7226 52.7394 7.89281 53.3505 8.37375 53.6307C8.52392 53.7213 8.69425 53.7614 8.86446 53.7614C9.21527 53.7614 9.55581 53.5809 9.73628 53.2604C10.0171 52.7795 9.84637 52.1679 9.36543 51.8876Z" fill="black"/>
<path d="M13.3732 44.9541C12.9026 44.6733 12.2812 44.8337 12.0107 45.3147C11.7304 45.7956 11.9006 46.4067 12.3816 46.6875C12.5317 46.7775 12.7123 46.8176 12.8825 46.8176C13.2231 46.8176 13.5636 46.6371 13.7441 46.3166C14.0249 45.8357 13.8542 45.2246 13.3732 44.9541Z" fill="black"/>
<path d="M7.3718 55.3642C6.89086 55.0839 6.27929 55.2443 5.99899 55.7252C5.71869 56.2062 5.8889 56.8172 6.35957 57.0975C6.52001 57.1881 6.69034 57.2282 6.86055 57.2282C7.21136 57.2282 7.5519 57.0477 7.73237 56.7272C8.01317 56.2463 7.84246 55.6347 7.3718 55.3642Z" fill="black"/>
<path d="M20.3972 32.8C20.5473 32.8905 20.7279 32.9306 20.8981 32.9306C21.2387 32.9306 21.5792 32.7604 21.7597 32.4296C22.0405 31.9585 21.8698 31.3371 21.3888 31.0666C20.9182 30.7863 20.3066 30.9565 20.0263 31.4277C19.746 31.9086 19.9163 32.5196 20.3972 32.8Z" fill="black"/>
<path d="M19.3952 34.5337C18.9143 34.2632 18.293 34.4231 18.0224 34.9041C17.7421 35.385 17.9123 35.9966 18.3933 36.2671C18.5434 36.3572 18.7138 36.407 18.884 36.407C19.2348 36.407 19.5753 36.2269 19.7558 35.906C20.0366 35.4252 19.8659 34.8141 19.3952 34.5337Z" fill="black"/>
<path d="M16.3893 39.7437C16.5395 39.8337 16.7098 39.8738 16.8801 39.8738C17.2309 39.8738 17.5714 39.6937 17.7519 39.3728C18.0327 38.8919 17.862 38.2808 17.381 38.0103C16.9104 37.73 16.2988 37.8899 16.0185 38.3709C15.7382 38.8518 15.9085 39.4634 16.3893 39.7437Z" fill="black"/>
<path d="M15.3874 41.4771C14.9065 41.1968 14.2949 41.3671 14.0146 41.848C13.7343 42.3187 13.9045 42.94 14.3752 43.2105C14.5356 43.3011 14.706 43.3509 14.8762 43.3509C15.227 43.3509 15.5675 43.1704 15.748 42.8499C16.0288 42.369 15.8581 41.7579 15.3874 41.4771Z" fill="black"/>
</g>
<defs>
<clipPath id="clip0_3039_8016">
<rect width="64" height="64" fill="white"/>
</clipPath>
</defs>
</svg>
