<svg width="22" height="22" viewBox="0 0 22 22" fill="none" xmlns="http://www.w3.org/2000/svg">
<path d="M1.40002 4.40005H20.6M8.60002 16.4V9.20005M13.4 16.4V9.20005M15.8 21.2H6.20002C4.87454 21.2 3.80002 20.1255 3.80002 18.8V5.60005C3.80002 4.93731 4.33728 4.40005 5.00002 4.40005H17C17.6628 4.40005 18.2 4.93731 18.2 5.60005V18.8001C18.2 20.1255 17.1255 21.2 15.8 21.2ZM8.60002 4.40005H13.4C14.0628 4.40005 14.6 3.86279 14.6 3.20005V2.00005C14.6 1.33731 14.0628 0.800049 13.4 0.800049H8.60002C7.93728 0.800049 7.40002 1.33731 7.40002 2.00005V3.20005C7.40002 3.86279 7.93728 4.40005 8.60002 4.40005Z" stroke="#333333" stroke-width="1.5" stroke-linecap="round" stroke-linejoin="round"/>
</svg>
