<svg width="16" height="14" viewBox="0 0 16 14" fill="none" xmlns="http://www.w3.org/2000/svg">
<path transform="translate(0,1)" d="M8 0.545471C4.36364 0.545471 1.23636 2.80002 0 6.00002C1.23636 9.20002 4.36364 11.4546 8 11.4546C11.6364 11.4546 14.7636 9.20002 16 6.00002C14.7636 2.80002 11.6364 0.545471 8 0.545471ZM8 9.63638C5.96364 9.63638 4.36364 8.03638 4.36364 6.00002C4.36364 3.96365 5.96364 2.36365 8 2.36365C10.0364 2.36365 11.6364 3.96365 11.6364 6.00002C11.6364 8.03638 10.0364 9.63638 8 9.63638ZM8 3.8182C6.76364 3.8182 5.81818 4.76365 5.81818 6.00002C5.81818 7.23638 6.76364 8.18183 8 8.18183C9.23636 8.18183 10.1818 7.23638 10.1818 6.00002C10.1818 4.76365 9.23636 3.8182 8 3.8182Z" fill="currentColor"/>
<path fill-rule="evenodd" clip-rule="evenodd" d="M14 0.924572L0.924572 14L0 13.0754L13.0754 0L14 0.924572Z" fill="currentColor"/>
</svg>