<svg width="121" height="121" viewBox="0 0 121 121" fill="none" xmlns="http://www.w3.org/2000/svg">
<g clip-path="url(#clip0_3002_2177)">
<path d="M121 96.1849C120.811 96.8703 120.646 97.532 120.433 98.2174C118.991 102.826 114.714 106.205 109.869 106.3C104.032 106.418 98.218 106.347 92.3807 106.323C91.1518 106.323 90.3482 105.544 90.3482 104.48C90.3719 103.393 91.1754 102.684 92.5461 102.684C98.0289 102.66 103.488 102.66 108.971 102.684C111.476 102.708 113.603 101.904 115.304 100.037C116.746 98.4537 117.361 96.5394 117.361 94.4125C117.361 81.6035 117.384 68.8182 117.337 56.0092C117.313 50.9517 113.957 47.6904 108.924 47.6904C94.933 47.6904 80.966 47.6195 66.9754 47.7141C62.0598 47.7377 57.9949 46.1779 54.6154 42.6094C52.6539 40.5297 50.6451 38.45 48.5418 36.4885C46.6984 34.7633 44.6188 33.2744 41.9719 33.0144C41.192 32.9435 40.4121 32.9908 39.6086 32.9908C30.3918 32.9908 21.175 32.9908 11.9582 32.9908C7.91699 32.9908 4.82109 35.2832 3.89941 38.9463C3.68672 39.8207 3.61582 40.7424 3.61582 41.6404C3.59219 59.0814 3.59219 76.5461 3.61582 93.9871C3.61582 99.4226 6.87715 102.66 12.2891 102.66C17.3701 102.66 22.4512 102.66 27.5322 102.66C27.9576 102.66 28.4066 102.66 28.832 102.731C29.8246 102.897 30.3445 103.535 30.3918 104.527C30.4391 105.449 29.6828 106.205 28.6902 106.323C28.5012 106.347 28.2885 106.347 28.0994 106.347C22.6166 106.347 17.1574 106.371 11.6746 106.347C5.9082 106.276 1.34707 102.424 0.212695 96.7285C0.16543 96.5394 0.0708984 96.374 0 96.1849C0 67.4947 0 38.8281 0 10.1615C0.189063 9.45253 0.354492 8.71992 0.59082 8.01093C2.22148 3.07167 6.64082 -0.000592041 12.1709 -0.000592041C43.2953 -0.000592041 74.3961 -0.000592041 105.521 -0.000592041C106.891 -0.000592041 108.286 -0.0242249 109.656 0.0230408C114.596 0.141205 118.873 3.33163 120.409 8.03456C120.646 8.74355 120.811 9.45253 121 10.1615C121 38.8281 121 67.4947 121 96.1849ZM14.676 29.3514C14.676 28.7605 14.676 28.3351 14.676 27.9334C14.676 24.3885 14.676 20.8435 14.676 17.2986C14.676 15.2426 15.2432 14.6754 17.252 14.6754C46.084 14.6754 74.916 14.6754 103.724 14.6754C105.78 14.6754 106.324 15.2189 106.324 17.2514C106.324 25.6883 106.324 34.1016 106.324 42.5385C106.324 42.9875 106.324 43.4365 106.324 44.0037C110.46 43.531 114.028 44.5473 117.313 47.1232C117.337 46.5324 117.384 46.1543 117.384 45.7762C117.384 34.6215 117.384 23.4904 117.361 12.3357C117.361 6.92382 114.076 3.63886 108.687 3.63886C76.5467 3.63886 44.4061 3.63886 12.2891 3.63886C11.4383 3.63886 10.5402 3.68613 9.71309 3.89882C5.9791 4.79687 3.68672 7.89277 3.66309 12.0049C3.63945 18.433 3.66309 24.8375 3.66309 31.2656C3.66309 31.5965 3.71035 31.951 3.75762 32.4473C6.99531 29.8713 10.5402 28.9023 14.676 29.3514ZM18.3863 29.3514C18.9771 29.3514 19.4498 29.3514 19.8988 29.3514C26.7051 29.3514 33.535 29.3514 40.3412 29.3514C44.2643 29.3514 47.691 30.5803 50.5033 33.3217C52.1576 34.9523 53.7174 36.6775 55.3953 38.2609C56.8369 39.6316 58.3494 41.0023 59.9328 42.2076C61.4217 43.342 63.1232 44.051 65.0611 44.0273C77.0666 44.0037 89.0957 44.0037 101.101 44.0037C101.597 44.0037 102.07 44.0037 102.543 44.0037C102.543 35.3305 102.543 26.8935 102.543 18.3857C74.4434 18.3857 46.4148 18.3857 18.3391 18.3857C18.3863 22.0488 18.3863 25.6174 18.3863 29.3514Z" fill="black"/>
<path d="M56.955 121C56.5769 120.905 56.1987 120.811 55.8206 120.716C54.7335 120.409 54.0481 119.771 53.8827 118.613C53.5046 116.132 53.1028 113.65 52.7011 111.145C52.4884 109.798 52.1339 109.633 51.0468 110.389C49.0144 111.854 46.9583 113.343 44.9259 114.808C43.6733 115.706 43.0353 115.801 41.8772 114.737C39.703 112.705 37.5997 110.578 35.5673 108.404C34.5747 107.364 34.6692 106.608 35.4964 105.45C36.9853 103.37 38.4978 101.314 39.9866 99.2342C40.6956 98.2416 40.5538 97.8635 39.3485 97.6744C36.8671 97.249 34.3856 96.8945 31.9042 96.4691C30.3681 96.2092 29.6118 95.5238 29.5646 93.9877C29.47 91.199 29.47 88.4103 29.5646 85.6217C29.6118 84.1092 30.4626 83.4238 31.9515 83.1875C34.4093 82.8094 36.8435 82.4076 39.3013 82.0058C40.5302 81.8168 40.6956 81.415 39.9394 80.3752C38.4741 78.3191 36.9853 76.2867 35.52 74.2543C34.6692 73.049 34.5511 72.3164 35.52 71.3002C37.6233 69.0787 39.7976 66.9281 41.9954 64.8012C42.8462 63.974 43.8151 64.0449 44.7841 64.7539C46.8874 66.29 48.9907 67.8025 51.094 69.315C52.063 70.024 52.4884 69.8349 52.6538 68.6769C53.0556 66.1246 53.481 63.5486 53.8591 60.9726C54.0245 59.8146 54.6153 59.1766 55.8206 58.9875C58.9638 58.5148 62.0833 58.5148 65.2265 59.0111C66.3845 59.2002 66.928 59.8146 67.0935 60.9254C67.4479 63.4068 67.8733 65.8883 68.2751 68.3933C68.5114 69.9058 68.8423 70.0713 70.0712 69.1969C72.1272 67.7316 74.1597 66.2664 76.1921 64.7539C77.161 64.0449 78.0354 64.0213 78.9808 64.7539C81.4858 66.6209 83.6837 68.8187 85.5507 71.3238C86.2597 72.2691 86.2833 73.1435 85.5743 74.1125C84.0382 76.1922 82.5257 78.3191 81.0132 80.4224C80.3278 81.3914 80.4933 81.7931 81.6513 81.9822C84.1327 82.384 86.6142 82.7857 89.1192 83.1639C90.5136 83.3765 91.3407 84.0146 91.4116 85.4326C91.5298 88.3394 91.5298 91.2463 91.4116 94.1531C91.3644 95.5947 90.6081 96.2092 89.1665 96.4455C86.7323 96.8473 84.2745 97.2254 81.8167 97.6035C80.3751 97.8398 80.2333 98.1707 81.0604 99.3287C82.5257 101.385 83.9909 103.417 85.5034 105.45C86.236 106.442 86.3542 107.435 85.4798 108.333C83.3528 110.531 81.2022 112.705 79.0044 114.832C78.1536 115.659 77.2083 115.612 76.2394 114.879C74.2069 113.367 72.1745 111.925 70.1185 110.436C68.8187 109.491 68.5351 109.633 68.2987 111.263C67.9679 113.414 67.5188 115.517 67.3298 117.668C67.1644 119.677 66.0772 120.598 64.2812 120.929C61.847 121 59.3892 121 56.955 121ZM38.7341 72.5055C40.6011 75.0814 42.2554 77.2793 43.7915 79.548C44.1696 80.0916 44.3351 80.9424 44.2405 81.6041C44.1224 82.4312 43.7442 83.282 43.2479 83.9674C42.8226 84.5346 42.1608 85.149 41.4991 85.2908C39.0886 85.7871 36.6308 86.1416 34.173 86.4961C33.3931 86.6142 33.0622 86.8978 33.0858 87.6777C33.1331 89.143 33.1095 90.5846 33.0858 92.0498C33.0858 92.7588 33.3222 93.0896 34.0784 93.1842C35.9454 93.4205 37.7888 93.9168 39.6794 94.0349C41.9954 94.1531 43.3425 95.0984 44.0278 97.3435C44.3823 98.5015 44.4769 99.3996 43.7206 100.416C42.0899 102.543 40.5538 104.741 38.8286 107.128C40.3175 108.593 41.7827 110.058 43.2716 111.57C45.1386 110.223 46.8874 109.136 48.4235 107.789C50.3142 106.135 52.1103 105.544 54.4499 106.962C55.3479 107.506 55.9151 108.002 56.0806 109.042C56.4351 111.452 56.8841 113.863 57.2149 116.273C57.3095 117.006 57.5931 117.29 58.3257 117.29C59.8146 117.266 61.3034 117.242 62.8159 117.29C63.5722 117.313 63.8085 116.959 63.903 116.25C64.163 114.383 64.6593 112.539 64.7538 110.649C64.872 108.38 65.7937 107.057 67.9915 106.371C69.244 105.97 70.1894 105.946 71.2528 106.773C73.3325 108.38 75.5067 109.869 77.7755 111.523C79.3116 110.011 80.7769 108.569 82.2421 107.104C80.8241 105.142 79.5952 103.441 78.3427 101.716C76.4048 99.0215 76.4284 99.0215 77.6337 96.0201C78.0354 95.0039 78.6972 94.4603 79.8079 94.3185C82.2185 93.9877 84.629 93.5387 87.0395 93.1842C87.7249 93.0896 88.0085 92.8297 87.9849 92.1443C87.9612 90.6555 87.9612 89.143 87.9849 87.6541C88.0085 86.8269 87.6067 86.5906 86.8505 86.4961C84.9835 86.2361 83.1401 85.7398 81.2495 85.6453C78.9571 85.5508 77.7046 84.5109 77.0192 82.3603C76.6647 81.2023 76.5702 80.3043 77.3265 79.3117C78.9571 77.1848 80.4933 75.0105 82.2657 72.5527C80.7769 71.0875 79.288 69.6459 77.7755 68.1807C75.3649 69.9295 73.1671 71.6074 70.8983 73.1199C70.3312 73.498 69.4331 73.6398 68.7478 73.5689C67.9679 73.4744 67.2116 73.0017 66.4554 72.6709C65.6282 72.3164 65.1792 71.7256 65.0374 70.8039C64.6829 68.3461 64.2339 65.9119 63.903 63.4541C63.8085 62.7215 63.5249 62.4142 62.7923 62.4142C61.3034 62.4379 59.7909 62.4379 58.3021 62.4142C57.664 62.4142 57.3095 62.6269 57.2149 63.3596C56.955 65.2738 56.4587 67.1644 56.3642 69.0787C56.246 71.3474 55.3479 72.6945 53.1265 73.3562C51.9212 73.7107 50.9995 73.8289 49.9597 73.0254C47.8563 71.3947 45.6585 69.8822 43.2007 68.1098C41.6882 69.5514 40.2466 70.993 38.7341 72.5055Z" fill="black"/>
<path d="M28.9502 44.0043C33.5113 44.0043 38.0725 44.0043 42.6336 44.0043C43.1063 44.0043 43.7207 43.9334 44.0043 44.1934C44.5006 44.6424 45.0678 45.3277 45.0678 45.9186C45.0678 46.4385 44.4533 47.0766 43.9334 47.4783C43.6262 47.7146 43.0354 47.6674 42.5627 47.6674C33.4404 47.6674 24.3182 47.6674 15.1959 47.6674C14.8887 47.6674 14.5578 47.691 14.2506 47.6437C13.2344 47.4783 12.5963 46.9348 12.549 45.8713C12.5018 44.9023 13.2344 44.1225 14.3215 44.0279C15.2668 43.957 16.2121 44.0043 17.1574 44.0043C21.0805 44.0043 25.0272 44.0043 28.9502 44.0043Z" fill="black"/>
<path d="M77.752 33.015C73.2381 33.015 68.7006 33.015 64.1867 33.015C63.8322 33.015 63.4777 33.0387 63.1232 32.9914C62.107 32.826 61.4453 32.2588 61.4453 31.1953C61.4453 30.1318 62.107 29.5646 63.1232 29.3992C63.4305 29.352 63.7613 29.3756 64.0686 29.3756C73.1908 29.3756 82.3131 29.3756 91.4354 29.3756C91.908 29.3756 92.4988 29.2811 92.8061 29.541C93.326 29.9664 93.9641 30.6281 93.9641 31.1953C93.9641 31.7625 93.326 32.4242 92.8061 32.8496C92.4988 33.1096 91.908 33.015 91.4354 33.015C86.8979 33.015 82.3131 33.015 77.752 33.015Z" fill="black"/>
<path d="M69.9767 89.781C70.0003 95.1221 65.6991 99.5414 60.4999 99.565C55.3007 99.565 50.9995 95.1457 50.9995 89.8047C50.9995 84.5109 55.2534 80.1389 60.429 80.0916C65.6282 80.068 69.9767 84.44 69.9767 89.781ZM54.5681 89.8283C54.5681 93.1369 57.3095 95.9492 60.4999 95.9492C63.6903 95.9492 66.4317 93.1133 66.4081 89.8283C66.4081 86.5433 63.6667 83.7074 60.4763 83.7074C57.3095 83.7074 54.5681 86.5433 54.5681 89.8283Z" fill="black"/>
</g>
<defs>
<clipPath id="clip0_3002_2177">
<rect width="121" height="121" fill="white"/>
</clipPath>
</defs>
</svg>
