<svg width="116" height="116" viewBox="0 0 116 116" fill="none" xmlns="http://www.w3.org/2000/svg">
<g clip-path="url(#clip0_3001_2169)">
<path d="M0 103.992C0 73.3383 0 42.6617 0 12.0078C0.0679688 11.7133 0.18125 11.4414 0.226562 11.1469C1.35938 4.80313 6.8875 0.0226563 13.3672 0.0226563C43.1148 0 72.8852 -0.0226563 102.633 0.0453125C108.116 0.0679687 112.194 2.78672 114.641 7.72578C115.275 9.0625 115.547 10.5805 116 12.0078C116 42.6617 116 73.3383 116 103.992C115.932 104.264 115.841 104.559 115.773 104.853C114.55 110.427 111.242 114.052 105.714 115.57C105.216 115.705 104.717 115.864 104.219 116C73.4742 116 42.7523 116 12.0078 116C11.8039 115.932 11.6 115.819 11.3734 115.796C7.15938 115.071 3.89688 112.873 1.83516 109.135C0.974219 107.572 0.589062 105.714 0 103.992ZM58.0453 3.51172C43.3867 3.51172 28.7508 3.48906 14.0922 3.51172C7.70312 3.51172 3.48906 7.68047 3.48906 14.0469C3.46641 43.3414 3.46641 72.6359 3.48906 101.93C3.48906 108.252 7.68047 112.466 14.0016 112.466C43.3414 112.488 72.6813 112.488 101.998 112.466C108.274 112.466 112.466 108.297 112.488 102.021C112.511 72.6586 112.511 43.2734 112.466 13.9109C112.466 12.3703 112.171 10.7164 111.537 9.31172C109.656 5.21094 106.235 3.46641 101.795 3.46641C87.2039 3.51172 72.6133 3.51172 58.0453 3.51172Z" fill="black"/>
<path d="M82.4687 36.182C82.4687 36.7031 82.4687 37.043 82.4687 37.3828C82.4687 47.3969 82.4687 57.3883 82.4687 67.4024C82.4687 68.15 82.5367 68.6711 83.4429 68.8523C84.1679 68.9883 84.825 69.4188 85.6179 69.7586C85.8671 69.532 86.1617 69.2602 86.4335 68.9656C92.5281 62.8938 98.6226 56.7992 104.717 50.7273C105.034 50.4102 105.352 50.093 105.669 49.7758C106.869 48.5977 107.866 48.4164 108.682 49.2774C109.498 50.1156 109.316 51.0672 108.093 52.2906C101.704 58.6797 95.3375 65.0688 88.9257 71.4125C88.2687 72.0695 88.1554 72.5227 88.5859 73.4063C90.8742 78.1641 88.4953 83.7375 83.4656 85.4594C82.6726 85.7313 82.446 86.0711 82.446 86.8641C82.4687 93.3664 82.4687 99.8461 82.4687 106.348C82.4687 106.734 82.4914 107.119 82.446 107.481C82.2875 108.433 81.6757 108.977 80.7468 108.977C79.8179 108.977 79.1835 108.433 79.0703 107.459C79.025 107.096 79.0476 106.711 79.0476 106.326C79.0476 99.8688 79.025 93.4117 79.0703 86.9547C79.0703 86.0938 78.8437 85.7313 78.0054 85.4594C75.2867 84.5758 73.4062 82.7406 72.5226 80.0219C72.2281 79.1609 71.8656 78.8891 70.9593 78.8891C64.457 78.9344 57.9773 78.9117 51.475 78.9117C51.1351 78.9117 50.7953 78.9344 50.4554 78.8891C49.5039 78.7984 48.8242 78.0961 48.8015 77.1898C48.8015 76.3063 49.4585 75.5586 50.4101 75.468C50.75 75.4453 51.0898 75.4453 51.4296 75.4453C57.932 75.4453 64.4117 75.4227 70.914 75.468C71.7976 75.468 72.2054 75.2641 72.5 74.3578C73.3835 71.6391 75.2414 69.7813 77.9601 68.8977C78.8437 68.6031 79.0703 68.1953 79.0703 67.3117C79.0476 48.2125 79.0476 29.1133 79.0476 9.99141C79.0476 9.53829 79.025 9.08516 79.0703 8.63204C79.1835 7.65782 79.7726 7.15938 80.7242 7.06875C81.6078 7.00079 82.3781 7.70313 82.4914 8.63204C82.5367 8.97188 82.514 9.31172 82.514 9.65157C82.514 16.8336 82.514 23.993 82.514 31.175C82.514 31.6281 82.514 32.0586 82.514 32.6703C83.0578 32.6703 83.4882 32.6703 83.9187 32.6703C91.3953 32.6703 98.8718 32.6703 106.348 32.6703C106.643 32.6703 106.96 32.6477 107.255 32.6703C108.387 32.7609 109.067 33.4406 109.044 34.4602C109.022 35.4344 108.387 36.0914 107.3 36.182C106.847 36.2273 106.394 36.2047 105.941 36.2047C98.6226 36.2047 91.282 36.2047 83.964 36.2047C83.4882 36.182 83.0578 36.182 82.4687 36.182ZM80.7015 82.2422C83.5336 82.2648 86.0031 79.9086 86.0484 77.1672C86.0937 74.4258 83.6468 72.0469 80.7921 72.0242C77.9375 72.0016 75.4906 74.3125 75.4679 77.0766C75.4226 79.818 77.8695 82.2195 80.7015 82.2422Z" fill="black"/>
<path d="M68.0368 40.8945C67.9235 48.6656 65.5219 54.964 60.5149 60.107C54.6243 66.1562 48.5751 72.0922 42.5938 78.0734C41.461 79.2062 40.6454 79.1836 39.4899 78.0281C33.7126 72.2734 27.8672 66.5867 22.2032 60.7187C16.5165 54.8508 13.3446 47.8953 14.0696 39.5351C14.7266 31.8773 18.261 25.6469 24.1063 20.7984C41.8462 6.04921 64.8196 18.6008 67.6743 37.0883C67.8782 38.5383 67.9461 40.0109 68.0368 40.8945ZM41.0079 74.5844C46.7852 68.8523 52.5626 63.3016 58.1133 57.5469C63.3469 52.1094 65.454 45.4031 64.2532 37.9719C62.7579 28.7055 57.411 22.2258 48.5071 19.2351C39.6258 16.2672 31.5149 18.1703 24.7407 24.6047C15.2477 33.5992 15.1571 48.5297 24.4462 58.0226C29.7251 63.4375 35.1172 68.7164 40.4415 74.0633C40.6227 74.2445 40.8266 74.4031 41.0079 74.5844Z" fill="black"/>
<path d="M42.7977 95.6094C42.7977 99.3477 42.7977 103.086 42.7977 106.802C42.7977 108.161 41.9594 108.954 40.7813 108.773C39.6711 108.591 39.3313 107.821 39.3313 106.802C39.3313 104.423 39.3313 102.044 39.3313 99.6648C39.3313 94.8844 39.3313 90.0812 39.3313 85.3008C39.3313 85.0062 39.3313 84.6891 39.3313 84.3945C39.3766 83.1031 40.0336 82.3102 41.0758 82.3102C42.118 82.3102 42.8204 83.1031 42.8204 84.3945C42.843 87.0453 42.8204 89.6734 42.8204 92.3242C42.7977 93.4117 42.7977 94.5219 42.7977 95.6094Z" fill="black"/>
<path d="M20.3454 78.8438C16.6071 78.8438 12.8688 78.8438 9.13053 78.8438C7.56725 78.8438 6.61569 77.4844 7.40866 76.3062C7.70319 75.8531 8.42819 75.4453 8.97194 75.4453C16.5165 75.4 24.061 75.4 31.6055 75.4227C32.7157 75.4227 33.4407 76.193 33.418 77.1898C33.3954 78.1867 32.6477 78.8664 31.5376 78.8664C27.7993 78.8664 24.0837 78.8438 20.3454 78.8438Z" fill="black"/>
<path d="M41.0984 28.0031C48.5296 28.0258 54.5789 34.143 54.5109 41.5289C54.4203 48.9375 48.439 54.8734 41.0531 54.8734C33.5539 54.8734 27.5726 48.8242 27.6179 41.3023C27.6632 33.9391 33.7125 27.9805 41.0984 28.0031ZM50.9992 41.4836C50.9992 35.9781 46.6039 31.5148 41.1211 31.4922C35.5929 31.4695 31.0617 35.9328 31.039 41.4383C31.039 46.8984 35.5703 51.4297 41.0757 51.4297C46.5586 51.407 50.9992 46.9664 50.9992 41.4836Z" fill="black"/>
</g>
<defs>
<clipPath id="clip0_3001_2169">
<rect width="116" height="116" fill="white"/>
</clipPath>
</defs>
</svg>
