<svg width="137" height="137" viewBox="0 0 137 137" fill="none" xmlns="http://www.w3.org/2000/svg">
<g clip-path="url(#clip0_3037_4103)">
<path d="M137 95.2034V34.8305H116.102C114.818 34.8305 113.78 35.8684 113.78 37.1525C113.78 38.4366 114.818 39.4745 116.102 39.4745H132.356V90.5593H25.5424V39.4745H41.7966C43.0807 39.4745 44.1186 38.4366 44.1186 37.1525C44.1186 35.8684 43.0807 34.8305 41.7966 34.8305H25.5424V16.2542C25.5424 14.9701 24.5044 13.9322 23.2203 13.9322H18.2465C17.2086 9.93827 13.6048 6.96606 9.28814 6.96606C4.16573 6.96606 0 11.1318 0 16.2542C0 21.3766 4.16573 25.5423 9.28814 25.5423C13.6048 25.5423 17.2086 22.5701 18.2465 18.5762H20.8983V34.8305V37.1525V92.8813V95.2034V109.136C20.8983 110.42 21.9363 111.458 23.2203 111.458H39.5466C36.7021 113.575 34.8305 116.935 34.8305 120.746C34.8305 127.148 40.0388 132.356 46.4407 132.356C52.8425 132.356 58.0508 127.148 58.0508 120.746C58.0508 116.935 56.1793 113.575 53.3348 111.458H95.2754C92.4309 113.575 90.5593 116.935 90.5593 120.746C90.5593 127.148 95.7676 132.356 102.169 132.356C108.571 132.356 113.78 127.148 113.78 120.746C113.78 116.935 111.908 113.575 109.064 111.458H123.068C124.352 111.458 125.39 110.42 125.39 109.136C125.39 107.851 124.352 106.814 123.068 106.814H25.5424V95.2034H137ZM9.28814 20.8983C6.72693 20.8983 4.64407 18.8154 4.64407 16.2542C4.64407 13.693 6.72693 11.6101 9.28814 11.6101C10.9995 11.6101 12.4809 12.5506 13.2867 13.9322H11.6102C10.3261 13.9322 9.28814 14.9701 9.28814 16.2542C9.28814 17.5383 10.3261 18.5762 11.6102 18.5762H13.2867C12.4809 19.9578 10.9995 20.8983 9.28814 20.8983ZM46.4407 127.712C42.6 127.712 39.4746 124.586 39.4746 120.746C39.4746 116.905 42.6 113.78 46.4407 113.78C50.2813 113.78 53.4068 116.905 53.4068 120.746C53.4068 124.586 50.2813 127.712 46.4407 127.712ZM102.169 127.712C98.3288 127.712 95.2034 124.586 95.2034 120.746C95.2034 116.905 98.3288 113.78 102.169 113.78C106.01 113.78 109.136 116.905 109.136 120.746C109.136 124.586 106.01 127.712 102.169 127.712Z" fill="#144854"/>
<path d="M78.9492 69.661C96.8753 69.661 111.458 55.0786 111.458 37.1525C111.458 19.2264 96.8753 4.64404 78.9492 4.64404C61.023 4.64404 46.4407 19.2264 46.4407 37.1525C46.4407 55.0786 61.023 69.661 78.9492 69.661ZM78.9492 9.28811C94.3141 9.28811 106.814 21.7876 106.814 37.1525C106.814 52.5174 94.3141 65.0169 78.9492 65.0169C63.5843 65.0169 51.0847 52.5174 51.0847 37.1525C51.0847 21.7876 63.5843 9.28811 78.9492 9.28811Z" fill="#144854"/>
<path d="M76.6271 39.4745V55.7287C76.6271 57.0128 77.665 58.0508 78.9491 58.0508C80.2332 58.0508 81.2711 57.0128 81.2711 55.7287V39.4745H97.5254C98.8094 39.4745 99.8474 38.4365 99.8474 37.1525C99.8474 35.8684 98.8094 34.8304 97.5254 34.8304H81.2711V18.5762C81.2711 17.2921 80.2332 16.2542 78.9491 16.2542C77.665 16.2542 76.6271 17.2921 76.6271 18.5762V34.8304H60.3728C59.0887 34.8304 58.0508 35.8684 58.0508 37.1525C58.0508 38.4365 59.0887 39.4745 60.3728 39.4745H76.6271Z" fill="#144854"/>
</g>
<defs>
<clipPath id="clip0_3037_4103">
<rect width="137" height="137" fill="white"/>
</clipPath>
</defs>
</svg>
