<svg width="457" height="84" viewBox="0 0 457 84" fill="none" xmlns="http://www.w3.org/2000/svg">
<g clip-path="url(#clip0_3177_2117)">
<path d="M72.7564 13.5664C74.1782 17.7788 74.9199 22.239 74.9199 26.885C74.9199 42 66.6367 55.0708 54.7064 62.4425C54.5827 62.5045 54.4591 62.6283 54.2737 62.6903C54.2118 62.6903 54.2118 62.7522 54.15 62.7522C50.5647 64.8584 46.4231 66.0974 41.9724 66.0974C28.6821 66.0974 17.9263 55.3186 17.9263 42C17.9263 33.6991 22.1297 26.3894 28.4967 22.0531C17.37 28.8673 9.0249 42.6195 9.0249 57.177C9.0249 61.823 9.76669 66.2832 11.1884 70.4956C18.8535 78.7965 29.7948 84.062 41.9724 84.062C65.0913 84.062 83.8831 65.2301 83.8831 42.062C83.8213 31.0354 79.6179 21.062 72.7564 13.5664Z" fill="url(#paint0_linear_3177_2117)"/>
<path d="M28.435 22.0531C32.2676 19.4513 36.9037 17.9027 41.9107 17.9027C55.201 17.9027 65.9569 28.6814 65.9569 42C65.9569 50.6106 61.4443 58.1681 54.6447 62.4425C66.575 55.0708 74.8582 41.9381 74.8582 26.885C74.8582 22.2389 74.1165 17.7788 72.6947 13.5664C65.0914 5.20354 54.0883 0 41.9107 0C18.7918 0 0 18.8319 0 42C0 52.9646 4.20344 63 11.1267 70.4956C9.70499 66.2832 8.96321 61.823 8.96321 57.177C8.96321 42.6195 17.3083 28.8673 28.435 22.0531Z" fill="url(#paint1_linear_3177_2117)"/>
<path d="M41.9109 53.7698C48.3974 53.7698 53.6558 48.5002 53.6558 41.9999C53.6558 35.4996 48.3974 30.23 41.9109 30.23C35.4244 30.23 30.166 35.4996 30.166 41.9999C30.166 48.5002 35.4244 53.7698 41.9109 53.7698Z" fill="#144854"/>
<path d="M135.437 21.124V35.062C135.437 37.2302 135.128 39.1505 134.51 40.8231C133.892 42.5576 133.026 43.9824 131.852 45.1594C130.677 46.3363 129.256 47.2656 127.525 47.885C125.794 48.5045 123.878 48.8142 121.652 48.8142H98.7808V34.8762C98.7808 32.77 99.0898 30.8496 99.708 29.1771C100.326 27.4425 101.253 26.0178 102.428 24.8408C103.602 23.6638 105.024 22.7346 106.755 22.0532C108.486 21.4337 110.402 21.062 112.627 21.062H135.437V21.124ZM128.699 27.6284H112.689C111.329 27.6284 110.155 27.7523 109.228 28.0001C108.3 28.2479 107.559 28.6195 107.002 29.239C106.446 29.7965 106.075 30.6018 105.828 31.531C105.58 32.4602 105.457 33.6372 105.457 35.124V42.3098H121.467C122.827 42.3098 123.94 42.1859 124.867 42.0001C125.794 41.7523 126.536 41.3806 127.092 40.8231C127.648 40.2656 128.081 39.5222 128.328 38.531C128.576 37.6018 128.699 36.4248 128.699 34.9381V27.6284Z" fill="#313031"/>
<path d="M191.627 21.124V35.062C191.627 37.2302 191.318 39.1505 190.7 40.8231C190.082 42.5576 189.217 43.9824 188.042 45.1594C186.868 46.3363 185.446 47.2656 183.715 47.885C181.984 48.5045 180.068 48.8142 177.843 48.8142H140.321V34.8762C140.321 32.77 140.63 30.8496 141.248 29.1771C141.866 27.4425 142.793 26.0178 143.968 24.8408C145.142 23.6638 146.564 22.7346 148.295 22.0532C150.026 21.4337 151.942 21.062 154.167 21.062H191.627V21.124ZM154.229 27.6284C152.869 27.6284 151.695 27.7523 150.768 28.0001C149.84 28.2479 149.099 28.6195 148.542 29.239C147.986 29.7965 147.615 30.6018 147.368 31.531C147.12 32.4602 146.997 33.6372 146.997 35.124V42.3098H162.76V30.9735H169.498V42.3098H177.657C179.017 42.3098 180.13 42.1859 181.057 42.0001C181.984 41.7523 182.726 41.3806 183.282 40.8231C183.839 40.2656 184.271 39.5222 184.519 38.531C184.766 37.6018 184.89 36.4248 184.89 34.9381V27.6284H154.229Z" fill="#313031"/>
<path d="M231.56 48.7523H224.822V27.3187H203.434V48.7523H196.696V21.124H231.56V48.7523Z" fill="#313031"/>
<path d="M268.402 48.7523H261.664V27.6284H257.893C256.471 27.6284 255.297 27.8762 254.37 28.3099C253.443 28.8054 252.763 29.4869 252.268 30.4161L242.687 48.8143H235.207L245.468 28.124C247.756 23.4161 251.588 21.124 256.966 21.124H268.278V48.7523H268.402Z" fill="#313031"/>
<path d="M309.385 48.7523H302.647V38.0975H280.147V48.8143H273.409V34.8762C273.409 32.7081 273.718 30.7877 274.336 29.1152C274.954 27.3807 275.819 25.9559 276.994 24.7789C278.168 23.6019 279.59 22.6727 281.321 22.0532C283.052 21.4338 284.968 21.124 287.193 21.124H309.323V48.7523H309.385ZM302.647 27.6284H290.532C288.553 27.6284 286.884 27.7523 285.648 27.9382C284.412 28.124 283.423 28.4338 282.743 28.8054C282.063 29.1771 281.568 29.6727 281.259 30.1683C280.95 30.6638 280.765 31.2833 280.579 31.9647H302.647V27.6284Z" fill="#313031"/>
<path d="M349.565 48.7523H342.827V38.0975H321.439V48.7523H314.701V21.124H321.439V31.8408H342.827V21.124H349.565V48.7523Z" fill="#313031"/>
<path d="M360.445 48.7522H354.943V43.8584H360.445V48.7522Z" fill="#313031"/>
<path d="M365.823 48.7523V21.124H402.541V26.4515C402.541 34.2568 398.338 38.0975 389.931 38.0975H375.651V31.8408H391.352C392.712 31.8408 393.763 31.4692 394.567 30.7258C395.37 29.9824 395.865 28.9293 396.05 27.5665H372.561V48.7523H365.823Z" fill="#313031"/>
<path d="M457 21.124V35.062C457 37.2302 456.691 39.1505 456.073 40.8231C455.455 42.5576 454.589 43.9824 453.415 45.1594C452.241 46.3363 450.819 47.2656 449.088 47.885C447.357 48.5045 445.441 48.8142 443.215 48.8142H405.632V34.8762C405.632 32.77 405.941 30.8496 406.559 29.1771C407.177 27.4425 408.104 26.0178 409.279 24.8408C410.453 23.6638 411.875 22.7346 413.606 22.0532C415.337 21.4337 417.253 21.062 419.478 21.062H457V21.124ZM419.54 27.6284C418.18 27.6284 417.006 27.7523 416.079 28.0001C415.151 28.2479 414.41 28.6195 413.853 29.239C413.297 29.7965 412.926 30.6018 412.679 31.531C412.431 32.4602 412.308 33.6372 412.308 35.124V42.3098H428.071V30.9735H434.809V42.3098H442.968C444.328 42.3098 445.441 42.1859 446.368 42.0001C447.295 41.7523 448.037 41.3806 448.593 40.8231C449.15 40.2656 449.582 39.5222 449.83 38.531C450.077 37.6018 450.201 36.4248 450.201 34.9381V27.6284H419.54Z" fill="#313031"/>
<path d="M103.726 69.8142C104.9 69.8142 105.889 69.1328 106.322 68.0177H107.249C106.693 69.6284 105.395 70.6195 103.726 70.6195C101.624 70.6195 100.079 68.9469 100.079 66.7169C100.079 64.4248 101.624 62.8142 103.726 62.8142C105.395 62.8142 106.693 63.8054 107.249 65.416H106.322C105.889 64.3009 104.9 63.6195 103.726 63.6195C102.119 63.6195 100.944 64.9204 100.944 66.7169C100.944 68.5133 102.119 69.8142 103.726 69.8142Z" fill="black"/>
<path d="M109.598 62.938H114.605V63.7433H110.464V66.2831H114.482V67.0884H110.464V69.6283H114.605V70.4336H109.598V62.938Z" fill="black"/>
<path d="M117.325 62.938H120.416C122.023 62.938 123.259 63.9911 123.259 65.4778C123.259 66.9026 121.9 68.0176 120.416 68.0176H118.191V70.4336H117.325V62.938ZM120.416 63.7433H118.191V67.2743H120.416C121.529 67.2743 122.394 66.5309 122.394 65.5398C122.394 64.4867 121.59 63.7433 120.416 63.7433Z" fill="black"/>
<path d="M125.608 62.938H128.699C130.245 62.938 131.295 63.6814 131.295 64.8583C131.295 65.6637 130.739 66.2831 129.874 66.5929C130.986 66.8406 131.666 67.5221 131.666 68.3893C131.666 69.5663 130.43 70.4336 128.699 70.4336H125.608V62.938ZM128.699 63.6814H126.474V66.2831H128.699C129.688 66.2831 130.492 65.7256 130.492 64.9822C130.492 64.2389 129.75 63.6814 128.699 63.6814ZM128.699 67.0265H126.474V69.6902H128.699C129.935 69.6902 130.801 69.1327 130.801 68.3274C130.801 67.5221 129.997 67.0265 128.699 67.0265Z" fill="black"/>
<path d="M139.579 70.4956V64.5487L134.695 70.4956H134.015V63H134.881V68.9469L139.764 63H140.444V70.4956H139.579Z" fill="black"/>
<path d="M146.44 69.8142C147.615 69.8142 148.604 69.1328 149.036 68.0177H149.964C149.407 69.6284 148.109 70.6195 146.44 70.6195C144.338 70.6195 142.793 68.9469 142.793 66.7169C142.793 64.4248 144.338 62.8142 146.44 62.8142C148.109 62.8142 149.407 63.8054 149.964 65.416H149.036C148.604 64.3009 147.615 63.6195 146.44 63.6195C144.833 63.6195 143.658 64.9204 143.658 66.7169C143.658 68.5133 144.833 69.8142 146.44 69.8142Z" fill="black"/>
<path d="M162.512 62.938V70.4336H161.646V63.7433H156.948V70.4336H156.083V62.938H162.512Z" fill="black"/>
<path d="M165.232 62.938H168.323C169.93 62.938 171.166 63.9911 171.166 65.4778C171.166 66.9026 169.806 68.0176 168.323 68.0176H166.097V70.4336H165.232V62.938ZM168.323 63.7433H166.097V67.2743H168.323C169.435 67.2743 170.301 66.5309 170.301 65.5398C170.301 64.4867 169.435 63.7433 168.323 63.7433Z" fill="black"/>
<path d="M176.791 62.8142C178.955 62.8142 180.5 64.4248 180.5 66.7169C180.5 69.0089 178.955 70.6195 176.791 70.6195C174.689 70.6195 173.144 68.9469 173.144 66.7169C173.144 64.4248 174.689 62.8142 176.791 62.8142ZM176.791 69.8142C178.46 69.8142 179.635 68.5133 179.635 66.7169C179.635 64.8585 178.46 63.6195 176.791 63.6195C175.184 63.6195 174.009 64.9204 174.009 66.7169C174.009 68.5133 175.184 69.8142 176.791 69.8142Z" fill="black"/>
<path d="M182.849 69.6282C183.467 68.4512 183.838 67.2123 183.838 65.7875V62.876H188.351V69.5662H189.34V72.168H188.536V70.3716H182.849V72.168H181.984V69.5662H182.849V69.6282ZM187.547 69.6282V63.7432H184.704V65.8494C184.704 67.2742 184.395 68.5131 183.715 69.6901H187.547V69.6282Z" fill="black"/>
<path d="M194.038 62.938H194.965L198.427 70.4336H197.499L196.572 68.3893H192.431L191.503 70.4336H190.576L194.038 62.938ZM196.201 67.646L194.532 63.9911L192.863 67.646H196.201Z" fill="black"/>
<path d="M206.277 70.4955H205.412V67.1504H204.175L201.27 70.4955H200.219L203.495 66.7167L200.466 62.938H201.517L204.175 66.2831H205.412V62.938H206.277V66.2831H207.513L210.171 62.938H211.222L208.193 66.7167L211.47 70.4955H210.419L207.513 67.1504H206.277V70.4955Z" fill="black"/>
<path d="M219.753 70.4956V64.5487L214.869 70.4956H214.189V63H215.055V68.9469L219.938 63H220.618V70.4956H219.753Z" fill="black"/>
<path d="M230.385 62.8142C232.549 62.8142 234.094 64.4248 234.094 66.7169C234.094 69.0089 232.549 70.6195 230.385 70.6195C228.283 70.6195 226.738 68.9469 226.738 66.7169C226.676 64.4248 228.283 62.8142 230.385 62.8142ZM230.385 69.8142C232.054 69.8142 233.229 68.5133 233.229 66.7169C233.229 64.8585 232.054 63.6195 230.385 63.6195C228.778 63.6195 227.603 64.9204 227.603 66.7169C227.542 68.5133 228.778 69.8142 230.385 69.8142Z" fill="black"/>
<path d="M236.381 62.938H239.472C241.079 62.938 242.316 63.9911 242.316 65.4778C242.316 66.9026 240.956 68.0176 239.472 68.0176H237.247V70.4336H236.381V62.938ZM239.472 63.7433H237.247V67.2743H239.472C240.585 67.2743 241.45 66.5309 241.45 65.5398C241.45 64.4867 240.647 63.7433 239.472 63.7433Z" fill="black"/>
<path d="M246.704 63.7433H244.108V62.938H250.166V63.7433H247.57V70.4336H246.704V63.7433Z" fill="black"/>
<path d="M255.544 62.8142C257.708 62.8142 259.253 64.4248 259.253 66.7169C259.253 69.0089 257.708 70.6195 255.544 70.6195C253.442 70.6195 251.897 68.9469 251.897 66.7169C251.897 64.4248 253.442 62.8142 255.544 62.8142ZM255.544 69.8142C257.213 69.8142 258.388 68.5133 258.388 66.7169C258.388 64.8585 257.213 63.6195 255.544 63.6195C253.937 63.6195 252.762 64.9204 252.762 66.7169C252.762 68.5133 253.937 69.8142 255.544 69.8142Z" fill="black"/>
<path d="M264.198 63.6195V62.7522H264.754V63.6195C266.547 63.7433 267.783 64.9823 267.783 66.7168C267.783 68.4513 266.547 69.6902 264.754 69.7522V70.6195H264.198V69.7522C262.467 69.6283 261.169 68.3894 261.169 66.7168C261.169 65.0442 262.467 63.7433 264.198 63.6195ZM264.198 68.9469V64.4248C262.962 64.5487 262.034 65.4779 262.034 66.7168C262.034 67.8938 262.962 68.823 264.198 68.9469ZM264.754 68.9469C266.052 68.823 266.918 67.9557 266.918 66.7168C266.918 65.4779 266.052 64.5487 264.754 64.4248V68.9469Z" fill="black"/>
<path d="M273.408 62.8142C275.572 62.8142 277.117 64.4248 277.117 66.7169C277.117 69.0089 275.572 70.6195 273.408 70.6195C271.307 70.6195 269.761 68.9469 269.761 66.7169C269.761 64.4248 271.307 62.8142 273.408 62.8142ZM273.408 69.8142C275.077 69.8142 276.252 68.5133 276.252 66.7169C276.252 64.8585 275.077 63.6195 273.408 63.6195C271.801 63.6195 270.627 64.9204 270.627 66.7169C270.627 68.5133 271.801 69.8142 273.408 69.8142Z" fill="black"/>
<path d="M281.321 63.7433H278.725V62.938H284.783V63.7433H282.186V70.4336H281.321V63.7433Z" fill="black"/>
<path d="M290.16 62.8142C292.324 62.8142 293.869 64.4248 293.869 66.7169C293.869 69.0089 292.324 70.6195 290.16 70.6195C288.059 70.6195 286.513 68.9469 286.513 66.7169C286.513 64.4248 288.059 62.8142 290.16 62.8142ZM290.16 69.8142C291.829 69.8142 293.004 68.5133 293.004 66.7169C293.004 64.8585 291.829 63.6195 290.16 63.6195C288.553 63.6195 287.379 64.9204 287.379 66.7169C287.379 68.5133 288.553 69.8142 290.16 69.8142Z" fill="black"/>
<path d="M302.586 62.938V70.4336H301.72V63.7433H297.022V70.4336H296.157V62.938H302.586Z" fill="black"/>
<path d="M306.665 62.938H311.981V70.4336H311.116V63.7433H307.469L307.036 67.9557C306.851 69.876 306.294 70.6194 304.996 70.6194V69.8141C305.738 69.8141 306.047 69.3185 306.171 68.0176L306.665 62.938Z" fill="black"/>
<path d="M317.174 62.938H318.101L321.562 70.4336H320.635L319.708 68.3893H315.566L314.639 70.4336H313.712L317.174 62.938ZM319.337 67.646L317.668 63.9911L315.999 67.646H319.337Z" fill="black"/>
<path d="M323.355 62.938H324.221V66.2831H328.672V62.938H329.537V70.4336H328.672V67.0884H324.221V70.4336H323.355V62.938Z" fill="black"/>
<path d="M335.533 62.8142C337.696 62.8142 339.242 64.4248 339.242 66.7169C339.242 69.0089 337.696 70.6195 335.533 70.6195C333.431 70.6195 331.886 68.9469 331.886 66.7169C331.886 64.4248 333.431 62.8142 335.533 62.8142ZM335.533 69.8142C337.202 69.8142 338.376 68.5133 338.376 66.7169C338.376 64.8585 337.202 63.6195 335.533 63.6195C333.926 63.6195 332.751 64.9204 332.751 66.7169C332.751 68.5133 333.926 69.8142 335.533 69.8142Z" fill="black"/>
<path d="M341.529 62.938H344.62C346.165 62.938 347.216 63.6814 347.216 64.8583C347.216 65.6637 346.659 66.2831 345.794 66.5929C346.907 66.8406 347.587 67.5221 347.587 68.3893C347.587 69.5663 346.35 70.4336 344.62 70.4336H341.529V62.938ZM344.62 63.6814H342.394V66.2831H344.62C345.609 66.2831 346.412 65.7256 346.412 64.9822C346.412 64.2389 345.67 63.6814 344.62 63.6814ZM344.62 67.0265H342.394V69.6902H344.62C345.856 69.6902 346.721 69.1327 346.721 68.3274C346.721 67.5221 345.918 67.0265 344.62 67.0265Z" fill="black"/>
</g>
<defs>
<linearGradient id="paint0_linear_3177_2117" x1="8.93255" y1="48.7801" x2="83.8296" y2="48.7801" gradientUnits="userSpaceOnUse">
<stop stop-color="#144854"/>
<stop offset="0.6734" stop-color="#5D8F96"/>
<stop offset="1" stop-color="#7CADB2"/>
</linearGradient>
<linearGradient id="paint1_linear_3177_2117" x1="0" y1="35.235" x2="74.897" y2="35.235" gradientUnits="userSpaceOnUse">
<stop stop-color="#7CADB2"/>
<stop offset="0.3266" stop-color="#5D8F96"/>
<stop offset="1" stop-color="#144854"/>
</linearGradient>
<clipPath id="clip0_3177_2117">
<rect width="457" height="84" fill="white"/>
</clipPath>
</defs>
</svg>
