<svg width="14" height="14" viewBox="0 0 14 14" fill="none" xmlns="http://www.w3.org/2000/svg">
<path fill-rule="evenodd" clip-rule="evenodd" d="M5.52403 7L0.494975 1.97095C0.221608 1.69758 0.221608 1.25436 0.494975 0.980996L0.980996 0.494975C1.25436 0.221608 1.69758 0.221607 1.97095 0.494974L7 5.52403L12.0291 0.494975C12.3024 0.221608 12.7456 0.221608 13.019 0.494975L13.505 0.980996C13.7784 1.25436 13.7784 1.69758 13.505 1.97095L8.47597 7L13.505 12.0291C13.7784 12.3024 13.7784 12.7456 13.505 13.019L13.019 13.505C12.7456 13.7784 12.3024 13.7784 12.0291 13.505L7 8.47597L1.97095 13.505C1.69758 13.7784 1.25436 13.7784 0.980996 13.505L0.494975 13.019C0.221608 12.7456 0.221607 12.3024 0.494974 12.0291L5.52403 7Z" fill="currentColor"/>
</svg>
