<svg width="121" height="121" viewBox="0 0 121 121" fill="none" xmlns="http://www.w3.org/2000/svg">
<path d="M74.4828 59.3891C74.4828 66.2779 68.7932 71.9675 61.7634 72.1086C54.6866 72.2497 48.9028 66.7246 48.9028 59.7653C48.9028 52.806 54.6866 47.1164 61.7634 47.0458C68.7932 46.9753 74.4828 52.5004 74.4828 59.3891Z" fill="#E87258"/>
<path d="M115.722 41.8499C112.995 41.8734 110.761 39.6634 110.761 36.9361V10.8388L84.3816 10.7213C81.5838 10.6978 79.3032 8.44071 79.3032 5.66641C79.3032 2.89211 81.5838 0.658558 84.3816 0.682069L115.722 0.964204C118.449 0.987715 120.659 3.22125 120.659 5.94853V36.8655C120.659 39.5928 118.449 41.8264 115.722 41.8499Z" fill="white"/>
<path d="M5.40754 42.6727C2.42164 42.6962 0 40.3921 0 37.5238V5.12558C0 2.25724 2.42164 -0.0233309 5.40754 0.00018016L38.7227 0.305821C41.6145 0.329332 43.9656 2.63342 43.9656 5.45474C43.9656 8.27607 41.6145 10.5331 38.7227 10.5096L10.7916 10.3686V37.4768C10.7916 40.3216 8.36993 42.6492 5.40754 42.6727Z" fill="white"/>
<path d="M115.722 116.638L84.3816 117.814C81.5838 117.908 79.3032 115.745 79.3032 112.994C79.3032 110.22 81.5838 107.892 84.3816 107.798L110.761 106.905V80.831C110.761 78.1037 112.971 75.8232 115.722 75.7761C118.449 75.7291 120.659 77.8921 120.659 80.6194V111.536C120.659 114.24 118.449 116.521 115.722 116.638Z" fill="white"/>
<path d="M38.7232 119.507L5.40802 120.753C2.42212 120.87 0.000488281 118.637 0.000488281 115.768V83.3468C0.000488281 80.4784 2.42212 78.1273 5.40802 78.0568C8.37041 77.9863 10.7921 80.2433 10.7921 83.1117V110.22L38.7232 109.279C41.615 109.185 43.9661 111.372 43.9661 114.193C43.9661 117.038 41.615 119.413 38.7232 119.507Z" fill="white"/>
</svg>
