<svg width="137" height="137" viewBox="0 0 137 137" fill="none" xmlns="http://www.w3.org/2000/svg">
<g clip-path="url(#clip0_3036_4077)">
<path d="M136.323 131.593L121.725 116.322C125.995 111.629 128.621 105.419 128.621 98.5911C128.621 84.0322 116.777 72.188 102.218 72.188C87.6592 72.188 75.8149 84.0322 75.8149 98.5911C75.8149 113.15 87.6592 124.994 102.218 124.994C108.188 124.994 113.683 122.979 118.112 119.624L132.789 134.975C133.268 135.476 133.911 135.731 134.557 135.731C135.166 135.731 135.772 135.506 136.247 135.053C137.22 134.117 137.257 132.568 136.323 131.593ZM80.7062 98.5911C80.7062 86.7298 90.3567 77.0793 102.218 77.0793C114.079 77.0793 123.73 86.7298 123.73 98.5911C123.73 110.453 114.079 120.103 102.218 120.103C90.3567 120.103 80.7062 110.45 80.7062 98.5911Z" fill="#144854"/>
<path d="M64.5503 113.962L48.9129 107.261V7.77225L85.5975 27.1931V62.403C85.5975 63.7555 86.6907 64.8487 88.0431 64.8487C89.3956 64.8487 90.4888 63.7555 90.4888 62.403V27.357L127.173 12.2527V72.188C127.173 73.5405 128.267 74.6337 129.619 74.6337C130.972 74.6337 132.065 73.5405 132.065 72.188V8.60133C132.065 7.78448 131.659 7.02144 130.981 6.569C130.304 6.11655 129.443 6.02851 128.687 6.33911L88.1728 23.0208L47.6118 1.54809C47.58 1.53097 47.5457 1.52608 47.5139 1.51141C47.3941 1.45516 47.2743 1.41114 47.1495 1.37445C47.0835 1.35489 47.0175 1.33288 46.949 1.3182C46.8169 1.2913 46.6824 1.28152 46.5479 1.27663C46.4819 1.27418 46.4159 1.26685 46.3474 1.26929C46.2251 1.27663 46.1053 1.30108 45.983 1.32554C45.8998 1.34266 45.8191 1.35244 45.7384 1.3769C45.7237 1.38179 45.7091 1.38179 45.6968 1.38668L1.67527 16.0605C0.672552 16.3956 0 17.3298 0 18.3839V123.547C0 124.332 0.376629 125.07 1.01494 125.532C1.43804 125.833 1.93939 125.992 2.44564 125.992C2.70488 125.992 2.96656 125.951 3.21847 125.865L46.3572 111.485L62.6231 118.455C62.9362 118.592 63.2639 118.653 63.5867 118.653C64.5356 118.653 65.4381 118.098 65.8343 117.171C66.3674 115.933 65.7902 114.495 64.5503 113.962ZM4.89129 20.1472L44.0216 7.10459V107.112L4.89129 120.152V20.1472Z" fill="#144854"/>
</g>
<defs>
<clipPath id="clip0_3036_4077">
<rect width="137" height="137" fill="white"/>
</clipPath>
</defs>
</svg>
