<svg width="152" height="147" viewBox="0 0 152 147" fill="none" xmlns="http://www.w3.org/2000/svg">
<g clip-path="url(#clip0_2525_1919)">
<path d="M64.5503 113.962L48.9129 107.261V7.77225L85.5975 27.1931V62.403C85.5975 63.7555 86.6907 64.8487 88.0431 64.8487C89.3956 64.8487 90.4888 63.7555 90.4888 62.403V27.357L127.173 12.2527V72.188C127.173 73.5405 128.267 74.6337 129.619 74.6337C130.971 74.6337 132.065 73.5405 132.065 72.188V8.60133C132.065 7.78448 131.659 7.02144 130.981 6.569C130.304 6.11655 129.443 6.02851 128.687 6.33911L88.1728 23.0208L47.6118 1.54809C47.58 1.53097 47.5457 1.52608 47.5139 1.51141C47.3941 1.45516 47.2743 1.41114 47.1495 1.37445C47.0835 1.35489 47.0175 1.33288 46.949 1.3182C46.8169 1.2913 46.6824 1.28152 46.5479 1.27663C46.4819 1.27418 46.4159 1.26685 46.3474 1.26929C46.2251 1.27663 46.1053 1.30108 45.983 1.32554C45.8998 1.34266 45.8191 1.35244 45.7384 1.3769C45.7237 1.38179 45.7091 1.38179 45.6968 1.38668L1.67527 16.0605C0.672552 16.3956 0 17.3298 0 18.3839V123.547C0 124.332 0.376629 125.07 1.01494 125.532C1.43804 125.833 1.93939 125.992 2.44564 125.992C2.70488 125.992 2.96656 125.951 3.21847 125.865L46.3572 111.485L62.6231 118.455C62.9362 118.592 63.2639 118.653 63.5867 118.653C64.5356 118.653 65.4381 118.098 65.8343 117.171C66.3674 115.933 65.7902 114.495 64.5503 113.962ZM4.89129 20.1472L44.0216 7.10459V107.112L4.89129 120.152V20.1472Z" fill="#144854"/>
</g>
<g clip-path="url(#clip1_2525_1919)">
<path d="M141.14 96.7723C125.275 80.9069 99.4623 80.9069 83.5969 96.7723L73 107.368L83.8598 118.228C91.7919 126.16 102.211 130.127 112.632 130.127C123.053 130.127 133.471 126.161 141.404 118.228L152.001 107.631L141.14 96.7723ZM139.516 116.341C124.692 131.164 100.571 131.164 85.7468 116.341L76.7739 107.368L85.4839 98.6579C100.308 83.8347 124.429 83.8347 139.253 98.6579L148.226 107.631L139.516 116.341Z" fill="#144854" stroke="#144854"/>
<path d="M111.128 96.2843C105.701 96.2843 101.287 100.698 101.287 106.126C101.287 107.138 102.109 107.96 103.121 107.96C104.134 107.96 104.956 107.138 104.956 106.126C104.956 102.723 107.725 99.9532 111.128 99.9532C112.141 99.9532 112.963 99.1315 112.963 98.1188C112.963 97.1063 112.143 96.2843 111.128 96.2843Z" fill="#144854" stroke="#144854"/>
<path d="M112.463 89.6121C102.621 89.6121 94.6147 97.6185 94.6147 107.46C94.6147 117.302 102.621 125.308 112.463 125.308C122.304 125.308 130.311 117.302 130.311 107.46C130.311 97.6185 122.306 89.6121 112.463 89.6121ZM112.463 121.639C104.645 121.639 98.2837 115.277 98.2837 107.46C98.2837 99.6427 104.645 93.281 112.463 93.281C120.28 93.281 126.642 99.6427 126.642 107.46C126.642 115.277 120.281 121.639 112.463 121.639Z" fill="#144854" stroke="#144854"/>
</g>
<defs>
<clipPath id="clip0_2525_1919">
<rect width="137" height="137" fill="white"/>
</clipPath>
<clipPath id="clip1_2525_1919">
<rect width="79" height="79" fill="white" transform="translate(73 68)"/>
</clipPath>
</defs>
</svg>
