<svg width="102" height="163" viewBox="0 0 102 163" fill="none" xmlns="http://www.w3.org/2000/svg">
<path d="M2.6875 41.4375V41.9375H3.1875H98.8125H99.3125V41.4375V35.0625V34.5625H98.8125H3.1875H2.6875V35.0625V41.4375ZM2.6875 31.875V32.375H3.1875H98.8125H99.3125V31.875V22.3125V21.8125H98.8125H3.1875H2.6875V22.3125V31.875ZM99.3125 44.625V44.125H98.8125H3.1875H2.6875V44.625V79.6875V80.1875H3.1875H98.8125H99.3125V79.6875V44.625ZM49.3521 63.25H11.2104C10.5595 63.25 10.0625 62.7446 10.0625 62.1562C10.0625 61.5679 10.5595 61.0625 11.2104 61.0625H49.3553C50.0024 61.0625 50.5 61.5673 50.5 62.1562C50.5 62.7446 50.003 63.25 49.3521 63.25ZM30.2271 67.4375C30.878 67.4375 31.375 67.9429 31.375 68.5312C31.375 69.1202 30.8774 69.625 30.2303 69.625H11.2104C10.5595 69.625 10.0625 69.1196 10.0625 68.5312C10.0625 67.9429 10.5595 67.4375 11.2104 67.4375H30.2271ZM101.5 22.3125V79.6875C101.5 81.1709 100.296 82.375 98.8125 82.375H3.1875C1.70414 82.375 0.5 81.1709 0.5 79.6875V22.3125C0.5 20.8291 1.70414 19.625 3.1875 19.625H98.8125C100.296 19.625 101.5 20.8291 101.5 22.3125Z" fill="#144854" stroke="#144854"/>
<path d="M48.9129 100C47.6915 100 46.7015 100.99 46.7015 102.211V144.794L39.1415 137.234C38.28 136.373 36.8786 136.373 36.0172 137.234C35.1557 138.096 35.1557 139.497 36.0172 140.359L47.3443 151.686C47.7686 152.11 48.3343 152.329 48.9 152.329C49.4657 152.329 50.0315 152.11 50.4557 151.686L61.7829 140.359C62.6443 139.497 62.6443 138.096 61.7829 137.234C60.9215 136.373 59.52 136.373 58.6586 137.234L51.0986 144.794V102.199C51.1115 100.977 50.1343 100 48.9129 100Z" fill="#144854"/>
<path d="M76.8257 160.801V147.983C76.8257 146.761 75.8357 145.771 74.6143 145.771C73.3929 145.771 72.4029 146.761 72.4029 147.983V158.603H25.41V147.983C25.41 146.761 24.42 145.771 23.2114 145.771C22.0029 145.771 21 146.761 21 147.983V160.801C21 162.023 21.99 163 23.2114 163H74.6143C75.8357 163 76.8257 162.023 76.8257 160.801Z" fill="#144854"/>
</svg>
