<svg width="32" height="32" viewBox="0 0 32 32" fill="none" xmlns="http://www.w3.org/2000/svg">
<path d="M1 1V0.5H0.5V1H1ZM1 3.9985H0.5V4.4985H1V3.9985ZM4.0012 3.9985L4.45299 3.7843L4.31749 3.4985H4.0012V3.9985ZM9.39766 15.3805L9.8354 15.6221L9.95922 15.3978L9.84945 15.1663L9.39766 15.3805ZM7.36836 19.057L6.93061 18.8154L6.92905 18.8182L7.36836 19.057ZM27.9988 23.5V24H28.4988V23.5H27.9988ZM27.9988 20.5H28.4988V20H27.9988V20.5ZM10.2616 20.125L9.77626 20.0047L9.76157 20.0639V20.125H10.2616ZM10.3066 19.9435L9.86868 19.7021L9.83704 19.7596L9.82126 19.8232L10.3066 19.9435ZM11.6534 17.5V17H11.3581L11.2155 17.2586L11.6534 17.5ZM25.4506 15.9565L25.8874 16.1998L25.8885 16.1977L25.4506 15.9565ZM30.811 6.223L30.3754 5.97759L30.373 5.9818L30.811 6.223ZM7.32037 3.9985L6.86879 4.21316L7.00443 4.4985H7.32037V3.9985ZM6.71143 2.7175L6.25911 2.93061L6.25985 2.93216L6.71143 2.7175ZM9.99994 24.4997C8.06481 24.4997 6.51523 26.0692 6.51523 27.9997H7.51523C7.51523 26.6152 8.62339 25.4997 9.99994 25.4997V24.4997ZM6.51523 27.9997C6.51523 29.9285 8.06465 31.4997 9.99994 31.4997V30.4997C8.62355 30.4997 7.51523 29.3829 7.51523 27.9997H6.51523ZM9.99994 31.4997C11.9336 31.4997 13.4996 29.9316 13.4996 27.9997H12.4996C12.4996 29.3798 11.3809 30.4997 9.99994 30.4997V31.4997ZM13.4996 27.9997C13.4996 26.0661 11.9335 24.4997 9.99994 24.4997V25.4997C11.3811 25.4997 12.4996 26.6183 12.4996 27.9997H13.4996ZM24.9988 24.4997C23.0636 24.4997 21.5141 26.0692 21.5141 27.9997H22.5141C22.5141 26.6152 23.6222 25.4997 24.9988 25.4997V24.4997ZM21.5141 27.9997C21.5141 29.9285 23.0635 31.4997 24.9988 31.4997V30.4997C23.6224 30.4997 22.5141 29.3829 22.5141 27.9997H21.5141ZM24.9988 31.4997C26.9325 31.4997 28.4985 29.9316 28.4985 27.9997H27.4985C27.4985 29.3798 26.3797 30.4997 24.9988 30.4997V31.4997ZM28.4985 27.9997C28.4985 26.0661 26.9323 24.4997 24.9988 24.4997V25.4997C26.3799 25.4997 27.4985 26.6183 27.4985 27.9997H28.4985ZM4.0012 0.5H1V1.5H4.0012V0.5ZM0.5 1V3.9985H1.5V1H0.5ZM1 4.4985H4.0012V3.4985H1V4.4985ZM3.54941 4.2127L8.94587 15.5947L9.84945 15.1663L4.45299 3.7843L3.54941 4.2127ZM8.95992 15.1389L6.93062 18.8154L7.80611 19.2986L9.8354 15.6221L8.95992 15.1389ZM6.92905 18.8182C6.65671 19.3193 6.5009 19.8931 6.5009 20.5H7.5009C7.5009 20.0659 7.61206 19.6557 7.80767 19.2958L6.92905 18.8182ZM6.5009 20.5C6.5009 22.4321 8.06858 24 10.0006 24V23C8.62095 23 7.5009 21.8799 7.5009 20.5H6.5009ZM10.0006 24H27.9988V23H10.0006V24ZM28.4988 23.5V20.5H27.4988V23.5H28.4988ZM27.9988 20H10.635V21H27.9988V20ZM10.635 20C10.7056 20 10.7616 20.0587 10.7616 20.125H9.76157C9.76157 20.6083 10.1506 21 10.635 21V20ZM10.7469 20.2453L10.7919 20.0638L9.82126 19.8232L9.77626 20.0047L10.7469 20.2453ZM10.7445 20.1849L12.0913 17.7414L11.2155 17.2586L9.86868 19.7021L10.7445 20.1849ZM11.6534 18H22.8258V17H11.6534V18ZM22.8258 18C24.1422 18 25.2897 17.2729 25.8874 16.1998L25.0137 15.7132C24.5855 16.4821 23.7652 17 22.8258 17V18ZM25.8885 16.1977L31.249 6.4642L30.373 5.9818L25.0126 15.7153L25.8885 16.1977ZM31.2467 6.4684C31.4077 6.18249 31.5 5.85074 31.5 5.5H30.5C30.5 5.67426 30.4543 5.83751 30.3754 5.9776L31.2467 6.4684ZM31.5 5.5C31.5 4.3944 30.6043 3.4985 29.4986 3.4985V4.4985C30.0519 4.4985 30.5 4.9466 30.5 5.5H31.5ZM29.4986 3.4985H7.32037V4.4985H29.4986V3.4985ZM7.77194 3.78384L7.163 2.50284L6.25985 2.93216L6.86879 4.21316L7.77194 3.78384ZM7.16374 2.50439C6.6056 1.31975 5.39822 0.5 4.0012 0.5V1.5C4.99794 1.5 5.86035 2.08425 6.25912 2.93061L7.16374 2.50439Z" fill="currentColor"/>
</svg>
