<svg width="14" height="15" viewBox="0 0 14 15" fill="none" xmlns="http://www.w3.org/2000/svg">
<path d="M13.9554 6.98145C13.9257 6.90834 13.8831 6.84183 13.8288 6.7861L12.0794 4.98911C11.8513 4.75542 11.4827 4.75542 11.2546 4.98911C11.0265 5.22338 11.0265 5.60267 11.2546 5.83636L12.0088 6.61112H8.75032C8.42774 6.61112 8.16699 6.87955 8.16699 7.2103C8.16699 7.54106 8.42774 7.80949 8.75032 7.80949H12.0088L11.2546 8.58425C11.0265 8.81852 11.0265 9.19781 11.2546 9.4315C11.3683 9.54893 11.5176 9.60707 11.667 9.60707C11.8163 9.60707 11.9657 9.54896 12.0794 9.4315L13.8288 7.6345C13.8831 7.57937 13.9257 7.51286 13.9554 7.43916C14.0143 7.29302 14.0143 7.12764 13.9554 6.98145Z" fill="currentColor"/>
<path d="M9.91665 9.00811C9.59407 9.00811 9.33332 9.27654 9.33332 9.6073V12.6033H7V3.01615C7 2.75191 6.83082 2.51822 6.58407 2.44213L4.55815 1.81778H9.33332V4.81376C9.33332 5.14452 9.59407 5.41295 9.91665 5.41295C10.2392 5.41295 10.5 5.14452 10.5 4.81376V1.2186C10.5 0.887814 10.2392 0.619385 9.91665 0.619385H0.583324C0.562324 0.619385 0.543648 0.628373 0.52325 0.63076C0.495824 0.633765 0.47075 0.63854 0.4445 0.645141C0.38325 0.661319 0.327824 0.685895 0.275926 0.719432C0.263102 0.72783 0.247352 0.728419 0.235102 0.737997C0.230398 0.74162 0.228648 0.748221 0.223973 0.751816C0.160398 0.803328 0.107324 0.866243 0.0688242 0.941152C0.0606484 0.95733 0.0588984 0.974716 0.0525 0.991484C0.0338242 1.03701 0.0134258 1.08136 0.00642578 1.1317C0.0035 1.14967 0.00875 1.16644 0.00817578 1.18383C0.00760156 1.19582 0 1.2066 0 1.21857V13.2025C0 13.4883 0.196574 13.734 0.469 13.7897L6.30232 14.9881C6.34025 14.9965 6.37875 15.0001 6.41665 15.0001C6.55022 15.0001 6.68147 14.9528 6.78647 14.8641C6.92122 14.7502 6.99997 14.5806 6.99997 14.4009V13.8017H9.91665C10.2392 13.8017 10.5 13.5332 10.5 13.2025V9.6073C10.5 9.27654 10.2392 9.00811 9.91665 9.00811Z" fill="currentColor"/>
</svg>
