<svg width="14" height="14" viewBox="0 0 14 14" fill="none" xmlns="http://www.w3.org/2000/svg">
<g clip-path="url(#clip0_3040_1964)">
<path d="M12.9692 2.69358H8.7064L7.54572 0.798277C7.4723 0.678416 7.34189 0.605347 7.20132 0.605347H3.99115C3.4231 0.605347 2.96094 1.06751 2.96094 1.63559V3.39932V9.56965C2.96094 10.1377 3.4231 10.5999 3.99115 10.5999H11.0379H12.9692C13.5372 10.5999 13.9994 10.1377 13.9994 9.56965V3.72385C13.9994 3.15574 13.5372 2.69358 12.9692 2.69358Z" fill="currentColor"/>
<path d="M2.15385 9.57036V3.40002H1.03024C0.462162 3.40002 0 3.86219 0 4.43026V12.3643C0 12.9324 0.462162 13.3945 1.03024 13.3945H10.0082C10.5763 13.3945 11.0385 12.9324 11.0385 12.3643V11.4083H3.99175C2.97834 11.4083 2.15385 10.5838 2.15385 9.57036Z" fill="currentColor"/>
</g>
<defs>
<clipPath id="clip0_3040_1964">
<rect width="14" height="14" fill="white"/>
</clipPath>
</defs>
</svg>
