<svg width="14" height="14" viewBox="0 0 14 14" fill="none" xmlns="http://www.w3.org/2000/svg">
<g clip-path="url(#clip0_3040_1972)">
<path d="M12.6816 1.31889C10.9224 -0.440299 8.06011 -0.440271 6.30092 1.31892C5.0993 2.52054 4.68193 4.29135 5.20222 5.89793L0.121152 10.979C0.0442344 11.0559 0.000976562 11.1601 0.000976562 11.269V13.5894C0.000976562 13.8161 0.184426 13.9995 0.411133 13.9995H2.73147C2.84041 13.9995 2.94456 13.9563 3.02145 13.8793L3.60144 13.299C3.68995 13.2104 3.73321 13.0863 3.7188 12.9617L3.64669 12.3384L4.51026 12.2571C4.70653 12.2387 4.86155 12.0837 4.87998 11.8874L4.9613 11.0238L5.58454 11.0963C5.70029 11.1119 5.81686 11.0731 5.90457 10.9954C5.99188 10.9173 6.04195 10.8059 6.04195 10.689V9.92531H6.79177C6.90071 9.92531 7.00486 9.88205 7.08175 9.80513L8.13358 8.76722C9.73975 9.28792 11.4799 8.90199 12.6816 7.69955C14.4407 5.94039 14.4407 3.07808 12.6816 1.31889ZM11.5212 4.21924C11.0414 4.6991 10.2611 4.6991 9.78126 4.21924C9.30141 3.73938 9.30141 2.95913 9.78126 2.47928C10.2611 1.99942 11.0414 1.99942 11.5212 2.47928C12.0011 2.95913 12.0011 3.73938 11.5212 4.21924Z" fill="currentColor"/>
</g>
<defs>
<clipPath id="clip0_3040_1972">
<rect width="14" height="14" fill="white"/>
</clipPath>
</defs>
</svg>
