<svg width="14" height="14" viewBox="0 0 14 14" fill="none" xmlns="http://www.w3.org/2000/svg">
<g clip-path="url(#clip0_3040_1968)">
<path d="M6.90035 6.74384C7.82683 6.74384 8.62908 6.41155 9.28458 5.75594C9.94008 5.10044 10.2724 4.2984 10.2724 3.37181C10.2724 2.44555 9.94008 1.6434 9.28448 0.987682C8.62887 0.332289 7.82672 0 6.90035 0C5.97376 0 5.17172 0.332289 4.51622 0.987789C3.86072 1.64329 3.52832 2.44544 3.52832 3.37181C3.52832 4.2984 3.86072 5.10055 4.51632 5.75605C5.17193 6.41144 5.97408 6.74384 6.90035 6.74384Z" fill="currentColor"/>
<path d="M12.8004 10.7653C12.7814 10.4925 12.7432 10.1949 12.6869 9.88071C12.6301 9.56412 12.5569 9.26484 12.4693 8.99129C12.3789 8.70856 12.2558 8.42936 12.1037 8.1618C11.9459 7.88409 11.7604 7.64227 11.5524 7.44328C11.3348 7.23511 11.0684 7.06773 10.7604 6.94565C10.4534 6.8242 10.1132 6.76268 9.74929 6.76268C9.60638 6.76268 9.46817 6.82132 9.20125 6.9951C9.03697 7.10223 8.84482 7.22613 8.63034 7.36317C8.44695 7.48002 8.1985 7.5895 7.89164 7.68863C7.59224 7.7855 7.28826 7.83464 6.98823 7.83464C6.6882 7.83464 6.38432 7.7855 6.08461 7.68863C5.77806 7.58961 5.52962 7.48013 5.34643 7.36328C5.13399 7.22752 4.94173 7.10362 4.77499 6.99499C4.50839 6.82121 4.37007 6.76257 4.22716 6.76257C3.86315 6.76257 3.52306 6.8242 3.21619 6.94575C2.90836 7.06763 2.64187 7.235 2.42408 7.44339C2.21612 7.64248 2.03059 7.8842 1.87294 8.1618C1.72095 8.42936 1.5979 8.70846 1.50732 8.9914C1.41984 9.26494 1.34668 9.56412 1.28986 9.88071C1.23357 10.1945 1.19533 10.4922 1.17642 10.7656C1.15784 11.0335 1.14844 11.3116 1.14844 11.5924C1.14844 12.3232 1.38075 12.9148 1.83886 13.3511C2.29132 13.7817 2.88999 14.0001 3.61802 14.0001H10.3591C11.0871 14.0001 11.6856 13.7818 12.1381 13.3511C12.5963 12.9151 12.8287 12.3234 12.8287 11.5923C12.8286 11.3102 12.819 11.0319 12.8004 10.7653Z" fill="currentColor"/>
</g>
<defs>
<clipPath id="clip0_3040_1968">
<rect width="14" height="14" fill="white"/>
</clipPath>
</defs>
</svg>
