<svg width="22" height="16" viewBox="0 0 22 16" fill="none" xmlns="http://www.w3.org/2000/svg">
<path d="M0 0.335938V1.16155V15.0062V15.8318H21.6222V15.0062V1.16155V0.335938H0ZM13.1986 8.28714L11.236 10.2591C10.9974 10.4807 10.6241 10.4804 10.3956 10.2685L8.42329 8.28714L8.44059 8.2702L1.31427 1.05668H20.3126L13.1813 8.27056L13.1986 8.28714ZM7.39623 8.27597L0.72074 14.6985V1.56948L7.39623 8.27597ZM7.90436 8.78661L9.89468 10.7863C10.1502 11.0245 10.4781 11.1442 10.8075 11.1442C11.1401 11.1442 11.4742 11.022 11.7376 10.7766L13.7182 8.78661L20.2903 15.1111H1.32832L7.90436 8.78661ZM14.2263 8.27633L20.9015 1.56912V14.6985L14.2263 8.27633Z" fill="currentColor"/>
</svg>
