<svg width="24" height="24" viewBox="0 0 24 24" fill="none" xmlns="http://www.w3.org/2000/svg">
<path d="M10.653 20.4634L13.7278 17.3885L18.8093 20.9326L17.6694 22.0725C16.9101 22.8317 15.7956 23.1134 14.7668 22.8061C11.6214 21.8664 8.79595 20.1438 6.29028 17.6381C3.78462 15.1325 2.06197 12.307 1.12234 9.16164C0.81498 8.13281 1.09666 7.01829 1.85592 6.25902L2.99581 5.11913L6.53986 10.2006L3.46502 13.2754M14.8064 13.7499L14.8471 13.1699C15.0224 10.6704 12.8892 8.62347 10.399 8.90176M18.3638 14.1702L18.4373 13.1222C18.7541 8.60521 14.8991 4.9061 10.3991 5.40902M22.483 14.6082L22.5945 13.0181C23.0752 6.16498 17.2264 0.552713 10.3989 1.31573" stroke="currentColor"/>
</svg>
