<svg width="21" height="20" viewBox="0 0 21 20" fill="none" xmlns="http://www.w3.org/2000/svg">
<path fill-rule="evenodd" clip-rule="evenodd" d="M6.10542 16C4.98579 16 4.08725 16.895 4.08725 18C4.08725 19.104 4.98579 20 6.10542 20C7.22607 20 8.13374 19.104 8.13374 18C8.13374 16.895 7.22607 16 6.10542 16ZM16.247 16C15.1274 16 14.2288 16.895 14.2288 18C14.2288 19.104 15.1274 20 16.247 20C17.3677 20 18.2753 19.104 18.2753 18C18.2753 16.895 17.3677 16 16.247 16ZM2.04911 0H0.0197754V1.999H2.04911L5.69805 9.587L4.32589 12.038C4.16768 12.325 4.07742 12.653 4.07742 13C4.07742 14.104 4.98611 15 6.10574 15H18.2756V13H6.53473C6.39478 13 6.28221 12.889 6.28221 12.75L6.31263 12.629L7.22334 11H14.7778C15.5405 11 16.2057 10.585 16.5526 9.971L20.1772 3.482C20.2583 3.34 20.305 3.175 20.305 3C20.305 2.447 19.8506 1.999 19.2898 1.999H4.29344L3.88169 1.145C3.55817 0.468 2.85841 0 2.04911 0Z" fill="black"/>
</svg>
