<svg width="20" height="19" viewBox="0 0 20 19" fill="none" xmlns="http://www.w3.org/2000/svg">
<path fill-rule="evenodd" clip-rule="evenodd" d="M13.3482 11.9341L18.7306 17.3111C19.1161 17.6962 19.1174 18.3193 18.7275 18.7088C18.3403 19.0956 17.7146 19.0976 17.3285 18.7119L11.946 13.3348C10.695 14.2896 9.13174 14.8568 7.43584 14.8568C3.32914 14.8568 0 11.531 0 7.4284C0 3.32581 3.32914 0 7.43584 0C11.5425 0 14.8717 3.32581 14.8717 7.4284C14.8717 9.1226 14.3039 10.6843 13.3482 11.9341ZM7.43561 12.8759C4.42403 12.8759 1.98266 10.437 1.98266 7.42845C1.98266 4.41988 4.42403 1.98096 7.43561 1.98096C10.4472 1.98096 12.8886 4.41988 12.8886 7.42845C12.8886 10.437 10.4472 12.8759 7.43561 12.8759Z" fill="#0E3343"/>
</svg>
