<svg width="38" height="38" viewBox="0 0 38 38" fill="none" xmlns="http://www.w3.org/2000/svg">
<rect width="38" height="38" rx="12" fill="#CFCFCF"/>
<path d="M18.8797 9.99988C20.5189 9.99988 21.8196 10.3237 22.7817 10.9714C23.5122 11.4392 24.0646 12.0598 24.4388 12.8335C24.8129 13.6071 25 14.3897 25 15.1813C25 16.6925 24.5278 17.9249 23.5835 18.8784C22.4967 19.9759 20.9376 20.5246 18.9065 20.5246H17.6771V22.5216H20.9552C21.4769 22.5216 21.8998 22.6399 21.8998 23.4661C21.8998 24.3899 21.4769 24.4107 20.9552 24.4107H17.6771V26.6368C17.6771 27.3896 17.37 27.9999 16.314 27.9999C15.26 27.9999 14.951 27.3896 14.951 26.6368V24.4107H13.9445C13.4229 24.4107 13 24.3899 13 23.4661C13 22.6399 13.4229 22.5216 13.9445 22.5216H14.951V20.5246H14.1874C13.5316 20.5246 13 20.3899 13 19.3372C13 18.3799 13.5316 18.1498 14.1874 18.1498H14.951V11.9999C14.951 9.89531 14.8464 9.99988 16.951 9.99988H18.8797ZM17.6771 12.5366V18.1498H18.9065C20.1537 18.1498 21.0802 17.844 21.686 17.2323C22.1492 16.7645 22.3808 16.1258 22.3808 15.3162C22.3808 14.5246 22.1314 13.8769 21.6325 13.3732C21.0624 12.8155 20.1448 12.5366 18.8797 12.5366H17.6771Z" fill="#436D76"/>
</svg>
