<svg width="38" height="38" viewBox="0 0 38 38" fill="none" xmlns="http://www.w3.org/2000/svg">
<rect width="38" height="38" rx="12" fill="#CFCFCF"/>
<path d="M20.6576 15.3097C20.8953 15.547 21.4063 15.4682 21.4685 15.1382C21.499 14.9764 21.6403 14.8592 21.8049 14.8592H22.2297C22.7656 14.8592 23.1693 15.3469 23.0692 15.8734L22.2636 20.1103C22.1611 20.6328 22.1099 21.0247 22.1099 21.2859C22.1099 21.6517 22.1953 21.9216 22.366 22.0958C22.5366 22.2525 22.7244 22.3309 22.9292 22.3309C23.4754 22.3309 23.9875 21.9826 24.4654 21.2859C24.7555 20.8679 24.9774 20.3106 25.131 19.6139C25.2846 18.9173 25.3614 18.299 25.3614 17.7591C25.3614 16.1393 24.8067 14.7025 23.6973 13.4485C22.6049 12.1945 21.0346 11.5675 18.9864 11.5675C16.9212 11.5675 15.1802 12.2903 13.7636 13.7358C12.3469 15.1814 11.6386 16.9753 11.6386 19.1176C11.6386 20.6502 12.0311 22.0348 12.8163 23.2714C13.6014 24.508 14.6767 25.3875 16.0422 25.91C16.8956 26.2583 17.8685 26.4325 18.9608 26.4325C20.4919 26.4325 21.9265 26.1951 23.2646 25.7202C23.7406 25.5513 24.277 25.8038 24.4081 26.2916C24.5143 26.6869 24.3137 27.1029 23.9277 27.2388C22.4869 27.7463 20.8739 28 19.0889 28C16.5628 28 14.4975 27.2946 12.8931 25.8839C10.9644 24.1597 10 21.8955 10 19.0914C10 16.4615 10.8449 14.2932 12.5346 12.5864C14.2244 10.8621 16.3494 10 18.9096 10C21.2139 10 23.134 10.7054 24.6702 12.1161C26.2234 13.5094 27 15.3817 27 17.7329C27 19.5791 26.5904 21.0595 25.7711 22.1742C24.9518 23.2714 23.9704 23.82 22.8268 23.82C22.2977 23.82 21.8624 23.672 21.5211 23.3759C21.1544 23.0412 20.3753 22.9089 19.9879 23.2195C19.3584 23.7244 18.5978 23.9768 17.7063 23.9768C16.8188 23.9768 15.991 23.6459 15.2229 22.984C14.4719 22.3048 14.0964 21.2424 14.0964 19.7968C14.0964 18.1771 14.5572 16.897 15.4789 15.9565C16.4006 15.016 17.4332 14.5457 18.5768 14.5457C19.4537 14.5457 20.1473 14.8004 20.6576 15.3097ZM17.9623 22.148C18.6963 22.148 19.3363 21.8171 19.8825 21.1553C20.4458 20.4935 20.7274 19.6488 20.7274 18.6212C20.7274 17.8723 20.5397 17.3149 20.1642 16.9492C19.7887 16.566 19.3278 16.3745 18.7816 16.3745C18.0306 16.3745 17.3906 16.6792 16.8614 17.2888C16.3323 17.8984 16.0678 18.7257 16.0678 19.7707C16.0678 20.537 16.247 21.1292 16.6054 21.5472C16.9809 21.9478 17.4332 22.148 17.9623 22.148Z" fill="#436D76"/>
<path fill-rule="evenodd" clip-rule="evenodd" d="M22.4596 20.1488C22.3577 20.6688 22.3097 21.045 22.3097 21.286C22.3097 21.6218 22.3878 21.83 22.5051 21.9522C22.6428 22.0772 22.7824 22.131 22.929 22.131C23.379 22.131 23.8384 21.846 24.3002 21.1728L24.3009 21.1719C24.5715 20.7821 24.7854 20.2516 24.9355 19.5709C25.0869 18.8842 25.1613 18.2808 25.1613 17.7591C25.1613 16.19 24.6256 14.7998 23.5473 13.581L23.5463 13.5799C22.5005 12.3794 20.9912 11.7675 18.9862 11.7675C16.9735 11.7675 15.2844 12.4696 13.9062 13.8759C12.5285 15.2817 11.8384 17.0243 11.8384 19.1176C11.8384 20.6141 12.2211 21.9613 12.9849 23.1643C13.747 24.3646 14.7882 25.2162 16.1134 25.7233L16.1176 25.7248C16.943 26.0618 17.8895 26.2326 18.9606 26.2326C20.4707 26.2326 21.8825 25.9984 23.1975 25.5318C23.773 25.3275 24.4369 25.6289 24.601 26.2397C24.7323 26.7283 24.4859 27.2542 23.9939 27.4275C22.5285 27.9436 20.8926 28.2 19.0887 28.2C16.5233 28.2 14.4082 27.4827 12.7608 26.0341L12.7596 26.033C10.7846 24.2674 9.7998 21.9471 9.7998 19.0915C9.7998 16.4146 10.6617 14.194 12.392 12.4461C14.1217 10.6812 16.2993 9.80005 18.9094 9.80005C21.2577 9.80005 23.2275 10.5203 24.8044 11.9681C26.4049 13.4043 27.1998 15.3334 27.1998 17.733C27.1998 19.6076 26.7838 21.1338 25.932 22.2927L25.9311 22.2939C25.0825 23.4304 24.0461 24.0201 22.8266 24.0201C22.258 24.0201 21.7736 23.8599 21.3898 23.527L21.5209 23.376C21.8623 23.672 22.2975 23.8201 22.8266 23.8201C23.9702 23.8201 24.9516 23.2715 25.7709 22.1742C26.5902 21.0596 26.9998 19.5791 26.9998 17.733C26.9998 15.3818 26.2232 13.5095 24.67 12.1162C23.1338 10.7054 21.2137 10 18.9094 10C16.3492 10 14.2242 10.8622 12.5344 12.5864C10.8447 14.2932 9.9998 16.4616 9.9998 19.0915C9.9998 21.8955 10.9642 24.1597 12.8929 25.8839C14.4973 27.2947 16.5626 28 19.0887 28C20.8737 28 22.4867 27.7463 23.9275 27.2389C24.3135 27.1029 24.5141 26.6869 24.4079 26.2916C24.2768 25.8038 23.7404 25.5514 23.2644 25.7203C21.9263 26.1951 20.4917 26.4326 18.9606 26.4326C17.8683 26.4326 16.8954 26.2584 16.042 25.9101C14.6765 25.3876 13.6012 24.508 12.8161 23.2715C12.0309 22.0349 11.6384 20.6503 11.6384 19.1176C11.6384 16.9754 12.3467 15.1815 13.7634 13.7359C15.18 12.2903 16.921 11.5675 18.9862 11.5675C21.0344 11.5675 22.6047 12.1945 23.6971 13.4485C24.8065 14.7025 25.3612 16.1394 25.3612 17.7591C25.3612 18.299 25.2844 18.9173 25.1308 19.614C24.9772 20.3106 24.7553 20.868 24.4652 21.286C23.9873 21.9826 23.4752 22.331 22.929 22.331C22.7242 22.331 22.5365 22.2526 22.3658 22.0958C22.1951 21.9217 22.1097 21.6517 22.1097 21.286C22.1097 21.0247 22.1609 20.6328 22.2634 20.1104L23.069 15.8735C23.1691 15.3469 22.7654 14.8593 22.2295 14.8593H21.8047C21.6401 14.8593 21.4988 14.9764 21.4683 15.1382C21.4061 15.4683 20.8951 15.5471 20.6574 15.3098C20.1471 14.8004 19.4535 14.5458 18.5766 14.5458C17.433 14.5458 16.4004 15.016 15.4787 15.9565C14.557 16.897 14.0962 18.1771 14.0962 19.7969C14.0962 21.2424 14.4717 22.3048 15.2227 22.9841C15.9908 23.6459 16.8186 23.9768 17.7061 23.9768C18.5976 23.9768 19.3582 23.7244 19.9877 23.2196C20.3751 22.909 21.1542 23.0412 21.5209 23.376L21.386 23.5237C21.2403 23.3906 20.9959 23.2865 20.7373 23.2542C20.4758 23.2216 20.2475 23.2676 20.1129 23.3756C19.444 23.9119 18.6381 24.1768 17.7061 24.1768C16.7639 24.1768 15.891 23.824 15.0921 23.1356L15.0885 23.1325C14.2802 22.4014 13.8962 21.2742 13.8962 19.7969C13.8962 18.1375 14.3695 16.8026 15.3359 15.8165C16.289 14.844 17.371 14.3458 18.5766 14.3458C19.4943 14.3458 20.243 14.6136 20.7987 15.1682C20.8604 15.2299 20.9753 15.2622 21.0915 15.2402C21.2074 15.2183 21.2611 15.1578 21.2718 15.1012C21.3201 14.8449 21.5439 14.6593 21.8047 14.6593H22.2295C22.8909 14.6593 23.389 15.2611 23.2655 15.9108L22.4596 20.1488ZM19.73 21.0257C20.2571 20.4064 20.5272 19.6104 20.5272 18.6212C20.5272 17.9029 20.3472 17.4069 20.0244 17.0925L20.0211 17.0893C19.684 16.7453 19.275 16.5745 18.7814 16.5745C18.0931 16.5745 17.5066 16.8505 17.0123 17.42C16.5231 17.9835 16.2676 18.7594 16.2676 19.7707C16.2676 20.5057 16.439 21.044 16.7542 21.4137C17.0928 21.7735 17.492 21.9481 17.9622 21.9481C18.626 21.9481 19.2127 21.6525 19.7281 21.028L19.73 21.0257ZM16.6052 21.5472C16.2468 21.1292 16.0676 20.5371 16.0676 19.7707C16.0676 18.7257 16.3321 17.8985 16.8613 17.2889C17.3904 16.6793 18.0304 16.3745 18.7814 16.3745C19.3276 16.3745 19.7885 16.5661 20.164 16.9493C20.5395 17.315 20.7272 17.8723 20.7272 18.6212C20.7272 19.6488 20.4456 20.4935 19.8823 21.1553C19.3362 21.8172 18.6961 22.1481 17.9622 22.1481C17.433 22.1481 16.9807 21.9478 16.6052 21.5472Z" fill="#436D76"/>
</svg>
