<svg width="38" height="38" viewBox="0 0 38 38" fill="none" xmlns="http://www.w3.org/2000/svg">
<rect width="38" height="38" rx="12" fill="#CFCFCF"/>
<g clip-path="url(#clip0_2525_2486)">
<path d="M26.8223 22.8057C25.4311 22.6784 24.0747 22.3249 22.7929 21.754C22.1629 21.4699 21.4261 21.727 21.1163 22.339L20.242 24.0747C17.5909 22.6051 15.3923 20.4053 13.9253 17.7567L15.6597 16.8837C16.2717 16.5764 16.5301 15.8397 16.2473 15.2071C15.6751 13.9266 15.3203 12.5714 15.1943 11.1777C15.1326 10.5066 14.5861 10 13.9214 10H10.6429C10.288 10 10 10.288 10 10.6429C10 13.2606 10.5709 15.7844 11.6959 18.1476C13.4046 21.6987 16.3013 24.5954 19.855 26.3054C22.2169 27.4304 24.7407 28 27.3571 28C27.712 28 28 27.712 28 27.3571V24.0786C28 23.4139 27.4934 22.8661 26.8223 22.8057Z" fill="#436D76"/>
</g>
<defs>
<clipPath id="clip0_2525_2486">
<rect width="18" height="18" fill="white" transform="translate(10 10)"/>
</clipPath>
</defs>
</svg>
